<svg id="svg" version="1.1" xmlns="http://www.w3.org/2000/svg" xmlns:xlink="http://www.w3.org/1999/xlink" width="400" height="400" viewBox="0, 0, 400,400"><g id="svgg"><path id="path0" d="M183.987 13.176 C 180.131 14.348,179.400 15.980,179.400 23.417 C 179.400 32.692,179.740 33.000,190.000 33.000 C 200.009 33.000,200.600 32.498,200.600 24.000 C 200.600 16.972,199.130 14.148,194.969 13.183 C 193.089 12.747,185.416 12.742,183.987 13.176 M166.500 45.288 C 165.223 45.904,165.297 47.505,166.626 48.010 C 168.067 48.558,214.601 48.535,215.626 47.986 C 216.633 47.447,216.633 45.753,215.626 45.214 C 214.529 44.627,167.725 44.697,166.500 45.288 M196.523 127.802 C 194.805 129.013,192.498 130.630,191.396 131.395 C 184.391 136.257,167.624 139.039,161.788 136.309 C 150.110 130.845,143.156 133.913,138.213 146.710 C 135.658 153.326,136.896 155.529,141.746 152.998 C 143.165 152.257,146.002 152.221,146.973 152.930 C 148.156 153.796,147.417 154.979,143.813 157.989 C 137.480 163.279,136.205 165.801,135.395 174.640 C 134.632 182.960,133.350 184.857,126.916 187.185 C 120.602 189.470,118.379 191.275,116.844 195.368 C 115.244 199.634,114.022 201.880,112.045 204.183 C 108.806 207.956,109.443 209.155,115.000 209.752 C 117.800 210.053,118.558 210.724,118.963 213.258 C 119.523 216.760,121.200 218.423,126.181 220.418 C 130.657 222.210,132.212 221.499,134.965 216.400 C 139.512 207.975,143.274 205.166,152.400 203.377 C 154.959 202.875,156.962 201.532,161.000 197.612 C 163.200 195.476,165.900 193.115,167.000 192.364 C 168.100 191.614,169.090 190.906,169.200 190.790 C 169.310 190.675,170.246 190.140,171.279 189.602 C 172.615 188.906,173.354 188.190,173.835 187.123 C 174.207 186.297,174.642 185.703,174.802 185.801 C 174.962 185.900,175.031 185.453,174.956 184.808 C 174.881 184.163,174.995 183.527,175.210 183.394 C 175.807 183.025,175.681 182.643,174.775 182.077 C 173.856 181.503,172.239 181.816,172.654 182.487 C 172.832 182.775,172.569 182.829,171.860 182.651 C 171.233 182.493,170.800 182.551,170.800 182.792 C 170.800 183.017,170.485 183.204,170.100 183.209 C 169.715 183.214,168.950 183.570,168.400 184.000 C 167.850 184.430,167.175 184.786,166.900 184.791 C 166.625 184.796,166.400 184.980,166.400 185.200 C 166.400 185.420,166.130 185.600,165.800 185.600 C 165.470 185.600,165.200 185.750,165.200 185.932 C 165.200 186.354,163.685 187.163,162.468 187.392 C 161.955 187.488,161.189 187.676,160.765 187.811 C 160.341 187.946,159.001 187.849,157.786 187.597 C 153.886 186.788,153.439 184.802,155.820 178.857 C 159.358 170.019,161.083 168.730,169.802 168.403 L 175.804 168.179 179.350 166.470 C 181.301 165.530,183.460 164.652,184.148 164.518 C 185.475 164.262,187.533 162.775,188.200 161.591 C 188.420 161.201,189.500 159.844,190.600 158.576 C 191.700 157.308,192.895 155.805,193.255 155.235 C 194.307 153.573,197.548 150.773,198.929 150.334 C 203.774 148.792,208.238 146.193,209.462 144.200 C 210.367 142.728,210.824 140.862,210.351 140.570 C 210.158 140.450,210.000 139.993,210.000 139.553 C 210.000 139.113,209.820 138.864,209.600 139.000 C 209.380 139.136,209.200 138.987,209.200 138.669 C 209.200 138.351,208.931 137.576,208.602 136.946 C 208.252 136.275,208.004 134.723,208.002 133.200 L 207.999 130.600 206.100 129.527 C 205.055 128.938,203.570 127.818,202.800 127.040 C 200.918 125.138,200.173 125.228,196.523 127.802 M184.754 171.928 C 183.454 173.261,182.819 174.456,182.710 175.779 C 182.664 176.340,182.470 176.800,182.279 176.800 C 182.089 176.800,182.009 177.025,182.102 177.300 C 182.194 177.575,181.984 178.022,181.635 178.292 C 180.927 178.841,181.771 179.789,182.543 179.312 C 182.752 179.182,182.793 179.287,182.634 179.545 C 182.475 179.802,182.132 179.894,181.872 179.748 C 181.527 179.554,181.530 179.623,181.883 180.004 C 182.280 180.433,182.482 180.430,183.014 179.989 C 183.557 179.538,183.716 179.541,184.006 180.010 C 184.292 180.473,184.492 180.441,185.176 179.822 C 185.629 179.412,186.002 179.239,186.004 179.438 C 186.006 179.637,186.431 179.080,186.949 178.200 C 187.863 176.646,188.319 173.600,187.638 173.600 C 187.452 173.600,187.190 173.048,187.055 172.373 C 186.920 171.699,186.643 171.250,186.439 171.376 C 186.235 171.502,186.008 171.436,185.934 171.230 C 185.860 171.024,185.329 171.338,184.754 171.928 M226.000 233.351 C 218.162 235.625,212.075 243.493,207.618 257.108 C 204.918 265.358,203.938 267.094,199.005 272.369 C 192.232 279.612,193.253 281.028,205.200 280.955 C 228.820 280.812,247.248 268.538,248.674 252.000 C 249.698 240.134,237.422 230.037,226.000 233.351 M48.657 308.811 C 43.897 310.238,43.519 316.736,48.042 319.400 C 50.004 320.556,330.746 320.678,333.291 319.524 C 337.435 317.646,337.552 311.029,333.473 309.177 C 331.661 308.355,51.383 307.994,48.657 308.811 M110.954 331.143 C 107.872 332.584,105.441 336.781,101.011 348.310 C 97.611 357.159,94.938 363.682,91.261 372.108 C 87.532 380.655,88.444 383.198,95.240 383.199 C 102.267 383.201,102.420 382.987,115.402 354.779 C 122.469 339.424,124.203 333.482,122.174 331.575 C 120.726 330.215,113.530 329.938,110.954 331.143 M260.109 330.716 C 255.906 332.055,256.887 336.515,265.447 354.980 C 278.467 383.065,278.321 382.856,285.173 383.131 C 295.461 383.545,295.467 383.243,285.616 359.800 C 283.582 354.960,281.040 348.785,279.967 346.077 C 276.437 337.168,273.756 332.732,271.041 331.309 C 269.704 330.608,261.794 330.179,260.109 330.716 M185.409 331.720 C 183.439 332.340,182.227 334.035,181.543 337.125 C 180.942 339.841,181.004 376.505,181.613 378.819 C 183.094 384.438,196.262 385.162,199.000 379.774 C 200.748 376.334,200.326 338.122,198.499 334.455 C 197.028 331.502,190.460 330.130,185.409 331.720 " stroke="none" fill="#d65e50" fill-rule="evenodd"></path><path id="path1" d="M56.361 59.712 C 53.893 61.372,54.047 53.577,54.023 178.092 C 53.998 304.189,53.816 295.010,56.373 296.521 C 57.738 297.327,62.904 297.412,65.336 296.669 L 66.872 296.200 64.616 295.023 C 61.608 293.454,59.413 291.014,58.627 288.365 C 57.735 285.361,57.662 71.651,58.552 68.693 C 59.370 65.974,60.554 64.579,63.110 63.325 L 65.400 62.200 171.000 62.181 C 250.703 62.166,278.268 62.040,283.400 61.667 C 298.509 60.570,300.960 60.373,301.084 60.249 C 302.105 59.228,273.873 58.942,164.761 58.869 L 57.723 58.797 56.361 59.712 M318.233 59.947 C 316.587 60.304,316.587 60.851,318.232 61.971 C 320.634 63.608,322.738 66.328,323.476 68.752 C 324.884 73.375,325.471 72.845,326.246 66.246 C 326.846 61.145,323.791 58.744,318.233 59.947 M87.450 93.407 C 86.570 94.287,86.629 96.122,87.565 96.968 C 89.508 98.727,92.462 96.389,91.188 94.100 C 90.448 92.773,88.454 92.403,87.450 93.407 M160.751 107.555 C 157.071 111.235,161.194 117.539,165.584 114.946 C 169.474 112.648,168.227 107.065,163.618 106.144 C 162.575 105.935,162.173 106.133,160.751 107.555 M212.773 113.433 C 212.518 113.740,212.162 113.900,211.982 113.789 C 211.802 113.678,211.540 113.773,211.400 114.000 C 211.260 114.227,210.976 114.309,210.770 114.181 C 210.563 114.054,210.293 114.213,210.170 114.535 C 209.976 115.039,209.486 115.289,208.091 115.593 C 207.931 115.628,207.515 115.915,207.168 116.229 C 206.820 116.544,206.444 116.710,206.332 116.598 C 205.611 115.877,201.600 121.568,201.600 123.311 C 201.600 123.617,201.465 124.002,201.300 124.167 C 200.453 125.014,202.603 127.462,205.932 129.441 C 208.092 130.726,208.796 130.572,212.349 128.036 C 218.434 123.695,222.789 123.188,220.069 127.138 C 218.673 129.165,216.516 133.422,214.818 137.502 C 212.126 143.969,210.804 145.402,204.200 149.012 C 193.836 154.677,189.599 161.350,188.842 173.200 C 188.299 181.696,185.670 184.669,175.400 188.400 C 168.489 190.911,166.870 191.948,161.000 197.626 C 157.187 201.315,154.479 203.186,152.916 203.212 C 152.275 203.223,152.284 203.272,153.000 203.678 C 153.440 203.927,153.890 204.255,154.000 204.406 C 154.286 204.798,156.152 205.783,156.452 205.701 C 156.591 205.663,157.024 205.985,157.414 206.416 C 158.955 208.119,161.415 206.826,166.920 201.418 C 172.551 195.888,173.930 194.847,179.118 192.209 C 189.130 187.121,192.041 183.391,192.613 174.923 C 193.314 164.560,196.658 158.502,204.164 154.000 C 212.904 148.758,214.414 147.338,218.604 140.423 C 223.911 131.665,224.708 130.867,232.380 126.632 C 241.710 121.480,243.887 116.008,236.611 115.996 C 235.285 115.994,232.130 115.561,229.600 115.034 C 226.496 114.387,223.861 114.095,221.500 114.138 C 219.575 114.172,218.000 114.085,218.000 113.944 C 218.000 113.803,217.325 113.578,216.500 113.445 C 215.675 113.312,214.603 113.129,214.118 113.038 C 213.633 112.948,213.028 113.126,212.773 113.433 M257.095 215.411 C 248.414 224.378,247.765 226.010,252.004 228.202 C 254.503 229.494,255.000 229.215,260.728 223.302 C 268.661 215.112,269.630 213.186,267.146 210.543 C 264.915 208.168,263.392 208.905,257.095 215.411 M290.638 252.611 C 286.593 254.721,287.241 260.313,291.657 261.404 C 296.855 262.688,298.374 254.653,293.332 252.546 C 291.755 251.887,292.039 251.880,290.638 252.611 " stroke="none" fill="#7098b6" fill-rule="evenodd"></path><path id="path2" d="M166.316 1.706 C 164.737 3.263,162.400 7.222,162.400 8.340 C 162.400 8.593,162.220 8.800,162.000 8.800 C 161.780 8.800,161.600 9.419,161.600 10.176 C 161.600 10.933,161.420 11.664,161.200 11.800 C 160.980 11.936,160.800 12.937,160.800 14.024 C 160.800 15.111,160.626 16.000,160.413 16.000 C 160.194 16.000,159.977 17.945,159.913 20.496 L 159.800 24.991 157.845 25.270 C 156.770 25.424,155.699 25.741,155.465 25.975 C 155.231 26.209,154.699 26.400,154.283 26.400 C 152.201 26.400,145.600 33.311,145.600 35.491 C 145.600 35.694,145.183 36.252,144.674 36.730 L 143.748 37.600 119.674 37.600 C 103.891 37.600,95.600 37.462,95.600 37.200 C 95.600 36.652,68.939 36.652,68.600 37.200 C 68.453 37.439,65.870 37.600,62.200 37.600 C 58.530 37.600,55.947 37.761,55.800 38.000 C 55.664 38.220,54.674 38.400,53.600 38.400 C 52.526 38.400,51.551 38.556,51.433 38.747 C 51.315 38.938,50.272 39.220,49.116 39.373 C 47.961 39.527,46.922 39.778,46.808 39.931 C 46.693 40.085,45.700 40.647,44.600 41.180 C 42.548 42.174,38.400 45.817,38.400 46.624 C 38.400 46.873,38.050 47.393,37.623 47.779 C 37.195 48.166,36.731 49.004,36.591 49.641 C 36.451 50.279,36.216 50.801,36.068 50.803 C 35.705 50.807,34.800 52.804,34.800 53.600 C 34.800 53.952,34.595 54.445,34.344 54.696 C 34.078 54.962,33.805 57.162,33.689 59.976 C 33.580 62.629,33.335 64.800,33.145 64.800 C 32.642 64.800,32.697 185.889,33.200 186.200 C 33.741 186.534,33.741 203.066,33.200 203.400 C 32.639 203.746,32.651 254.891,33.212 255.452 C 33.485 255.725,33.586 262.180,33.512 274.710 L 33.400 293.556 32.100 294.897 C 31.385 295.635,30.800 296.388,30.800 296.572 C 30.800 296.756,30.476 297.197,30.080 297.553 C 29.173 298.367,28.000 300.854,28.000 301.960 C 28.000 302.422,27.820 302.800,27.600 302.800 C 27.380 302.800,27.200 303.419,27.200 304.176 C 27.200 304.933,27.020 305.664,26.800 305.800 C 26.580 305.936,26.400 306.937,26.400 308.024 C 26.400 309.111,26.220 310.000,26.000 310.000 C 25.476 310.000,25.476 315.076,26.000 315.400 C 26.220 315.536,26.400 316.796,26.400 318.200 C 26.400 319.604,26.580 320.864,26.800 321.000 C 27.020 321.136,27.200 321.946,27.200 322.800 C 27.200 323.654,27.356 324.449,27.547 324.568 C 27.739 324.686,28.004 325.463,28.137 326.295 C 28.272 327.141,28.736 328.066,29.189 328.392 C 29.635 328.714,30.000 329.168,30.000 329.401 C 30.000 329.969,34.501 334.400,35.078 334.400 C 35.329 334.400,35.593 334.560,35.667 334.756 C 36.137 336.010,41.512 338.124,44.700 338.309 C 46.515 338.414,48.000 338.656,48.000 338.846 C 48.000 339.036,56.055 339.239,65.900 339.296 L 83.800 339.400 83.932 340.557 C 84.005 341.193,83.906 341.823,83.713 341.957 C 83.298 342.244,81.200 346.508,81.200 347.063 C 81.200 347.273,80.571 348.696,79.801 350.223 C 79.032 351.750,78.402 353.208,78.401 353.462 C 78.401 353.716,78.057 354.616,77.637 355.462 C 76.946 356.856,76.080 358.849,75.230 361.000 C 75.056 361.440,74.528 362.582,74.057 363.538 C 73.586 364.494,73.200 365.584,73.200 365.961 C 73.200 366.339,72.936 366.996,72.613 367.424 C 72.290 367.851,72.020 368.517,72.013 368.905 C 72.006 369.293,71.820 369.968,71.600 370.405 C 71.380 370.842,71.020 371.558,70.800 371.995 C 70.580 372.432,70.399 373.827,70.398 375.095 C 70.396 376.363,70.126 377.916,69.798 378.546 C 69.125 379.835,68.997 382.837,69.589 383.429 C 69.803 383.643,70.098 385.119,70.246 386.709 C 70.394 388.299,70.669 389.600,70.857 389.600 C 71.046 389.600,71.213 390.005,71.229 390.500 C 71.245 390.995,71.603 391.940,72.025 392.600 C 72.446 393.260,72.916 394.060,73.068 394.377 C 73.600 395.487,77.057 398.641,78.483 399.318 C 80.531 400.289,110.799 400.365,111.600 399.400 C 111.874 399.070,112.253 398.800,112.443 398.800 C 113.164 398.800,118.670 392.877,119.346 391.374 C 120.746 388.261,121.004 387.791,121.637 387.200 C 121.990 386.870,122.409 385.903,122.567 385.051 C 122.871 383.414,123.383 382.313,124.451 381.000 C 124.808 380.560,125.222 379.525,125.369 378.700 C 125.516 377.875,125.808 377.200,126.018 377.200 C 126.228 377.200,126.400 376.778,126.400 376.262 C 126.400 375.746,126.760 374.998,127.200 374.600 C 127.640 374.202,128.000 373.488,128.000 373.014 C 128.000 372.541,128.264 371.804,128.587 371.376 C 128.910 370.949,129.180 370.223,129.187 369.762 C 129.194 369.301,129.544 368.613,129.964 368.233 C 130.384 367.852,130.840 367.059,130.977 366.471 C 131.251 365.288,132.832 361.917,133.263 361.596 C 133.413 361.484,133.659 360.854,133.810 360.196 C 134.196 358.501,134.942 356.800,135.298 356.800 C 135.464 356.800,135.600 356.361,135.600 355.824 C 135.600 355.287,135.766 354.745,135.969 354.619 C 136.172 354.494,136.457 353.853,136.601 353.195 C 136.745 352.538,136.984 351.999,137.132 351.997 C 137.456 351.993,138.400 350.032,138.400 349.361 C 138.400 349.098,139.011 347.649,139.758 346.141 C 140.504 344.633,141.396 342.761,141.739 341.979 C 142.982 339.146,142.879 339.172,152.640 339.292 L 161.400 339.400 161.505 354.100 C 161.563 362.216,161.767 368.800,161.962 368.800 C 162.155 368.800,162.378 372.211,162.457 376.380 C 162.558 381.744,162.746 384.106,163.100 384.460 C 163.375 384.735,163.600 385.286,163.600 385.685 C 163.600 386.084,163.765 386.723,163.966 387.105 C 164.168 387.487,164.630 388.520,164.993 389.400 C 166.260 392.468,166.618 392.985,169.426 395.802 C 173.858 400.250,172.552 400.000,191.311 400.000 C 205.215 400.000,207.572 399.915,208.000 399.400 C 208.274 399.070,208.706 398.800,208.960 398.800 C 209.684 398.800,214.684 393.514,215.013 392.400 C 215.175 391.850,215.419 391.310,215.554 391.200 C 216.081 390.772,216.800 389.173,216.800 388.429 C 216.800 387.999,216.959 387.549,217.153 387.429 C 217.348 387.309,217.630 386.218,217.782 385.005 C 217.934 383.792,218.223 382.800,218.425 382.800 C 218.643 382.800,218.835 373.957,218.897 361.100 L 219.000 339.400 227.550 339.292 C 237.043 339.172,236.449 339.015,237.814 342.000 C 239.050 344.703,239.401 345.402,239.620 345.600 C 239.742 345.710,240.159 346.520,240.548 347.400 C 241.636 349.866,242.180 350.981,242.400 351.200 C 242.787 351.585,243.540 353.410,243.801 354.596 C 243.945 355.254,244.193 355.884,244.351 355.996 C 244.753 356.282,246.800 360.581,246.800 361.140 C 246.800 361.393,246.935 361.601,247.100 361.603 C 247.436 361.607,248.400 363.524,248.400 364.189 C 248.400 364.425,249.480 366.755,250.800 369.367 C 252.120 371.978,253.200 374.323,253.200 374.578 C 253.200 375.269,254.155 377.193,254.500 377.197 C 254.665 377.199,254.800 377.407,254.800 377.660 C 254.800 378.291,256.895 382.568,257.285 382.733 C 257.458 382.807,257.601 383.077,257.602 383.333 C 257.603 383.590,258.053 384.686,258.602 385.768 C 259.151 386.850,259.600 387.947,259.600 388.206 C 259.600 388.464,259.974 389.014,260.431 389.428 C 260.888 389.842,261.594 390.909,262.000 391.800 C 262.406 392.691,263.112 393.758,263.569 394.172 C 264.026 394.586,264.400 395.076,264.400 395.262 C 264.400 395.895,267.422 398.624,268.901 399.326 C 270.243 399.963,271.855 400.015,286.978 399.913 L 303.581 399.800 306.624 396.800 C 308.299 395.150,309.833 393.440,310.033 393.000 C 310.430 392.129,311.280 390.719,311.601 390.400 C 313.005 389.000,313.779 377.727,312.500 377.300 C 312.225 377.208,312.000 376.606,312.000 375.961 C 312.000 374.903,311.379 373.318,310.762 372.800 C 310.630 372.690,310.415 371.790,310.282 370.800 C 310.022 368.856,309.121 366.764,308.223 366.019 C 307.915 365.763,307.537 364.812,307.384 363.905 C 307.231 362.998,306.767 361.653,306.353 360.916 C 305.939 360.179,305.600 359.333,305.600 359.037 C 305.600 358.740,305.330 358.274,305.000 358.000 C 304.670 357.726,304.400 356.894,304.400 356.151 C 304.400 355.408,304.265 354.799,304.100 354.797 C 303.705 354.793,302.800 352.824,302.800 351.969 C 302.800 351.600,302.530 351.074,302.200 350.800 C 301.870 350.526,301.600 350.060,301.600 349.763 C 301.600 349.467,301.240 348.583,300.800 347.800 C 300.360 347.017,300.000 346.098,300.000 345.759 C 300.000 345.420,299.730 344.873,299.400 344.543 C 299.070 344.213,298.800 343.606,298.800 343.195 C 298.800 342.784,298.620 342.336,298.400 342.200 C 298.180 342.064,298.000 341.333,298.000 340.576 L 298.000 339.200 316.176 339.200 C 326.173 339.200,334.447 339.047,334.563 338.860 C 334.678 338.673,336.354 338.399,338.286 338.251 C 340.219 338.103,341.860 337.806,341.933 337.591 C 342.007 337.376,342.300 337.200,342.584 337.200 C 342.869 337.200,343.342 336.911,343.635 336.558 C 343.927 336.205,344.535 335.748,344.984 335.541 C 347.800 334.246,350.487 331.766,351.637 329.400 C 352.064 328.520,352.563 327.530,352.745 327.200 C 353.729 325.416,354.000 324.742,354.000 324.085 C 354.000 323.686,354.225 323.135,354.500 322.860 C 354.872 322.489,355.000 319.955,355.000 313.000 C 355.000 306.045,354.872 303.512,354.500 303.140 C 354.225 302.865,354.000 302.226,354.000 301.720 C 354.000 301.214,353.862 300.800,353.694 300.800 C 353.390 300.800,352.000 297.896,352.000 297.259 C 352.000 297.075,351.640 296.598,351.200 296.200 C 350.760 295.802,350.400 295.333,350.400 295.159 C 350.400 294.984,349.950 294.356,349.400 293.762 L 348.400 292.683 348.400 228.991 C 348.400 172.863,348.471 165.239,349.000 164.800 C 349.330 164.526,349.600 164.089,349.600 163.829 C 349.600 163.570,350.230 162.746,351.000 162.000 C 351.770 161.254,352.400 160.444,352.400 160.200 C 352.400 159.956,353.030 159.146,353.800 158.400 C 354.570 157.654,355.200 156.881,355.200 156.682 C 355.200 156.483,355.740 155.817,356.400 155.200 C 357.060 154.583,357.600 153.909,357.600 153.702 C 357.600 153.494,357.981 152.981,358.446 152.562 C 358.911 152.143,359.459 151.440,359.663 151.000 C 360.434 149.339,361.144 148.295,362.353 147.048 C 363.039 146.341,363.600 145.618,363.600 145.441 C 363.600 145.265,364.098 144.644,364.707 144.060 C 365.316 143.477,366.171 142.478,366.607 141.840 C 368.318 139.338,368.802 138.570,369.152 137.800 C 369.352 137.360,369.984 136.564,370.558 136.030 C 371.131 135.497,371.600 134.816,371.600 134.518 C 371.600 134.219,371.870 133.871,372.200 133.745 C 372.530 133.618,372.800 133.323,372.800 133.089 C 372.800 132.855,373.099 132.333,373.464 131.929 C 374.167 131.153,374.695 130.283,375.850 128.000 C 376.240 127.230,376.675 126.510,376.819 126.400 C 377.402 125.952,379.200 122.317,379.200 121.586 C 379.200 121.154,379.378 120.800,379.595 120.800 C 379.813 120.800,380.106 120.076,380.248 119.191 C 380.389 118.306,380.661 117.486,380.853 117.368 C 381.044 117.249,381.200 116.634,381.200 116.000 C 381.200 115.366,381.380 114.736,381.600 114.600 C 382.128 114.274,382.128 107.600,381.600 107.600 C 381.380 107.600,381.200 106.790,381.200 105.800 C 381.200 104.810,381.020 104.000,380.800 104.000 C 380.580 104.000,380.400 103.793,380.400 103.540 C 380.400 102.725,378.241 98.626,377.377 97.800 C 376.917 97.360,376.424 96.685,376.283 96.300 C 376.141 95.915,375.758 95.600,375.432 95.600 C 375.106 95.600,374.696 95.372,374.520 95.094 C 374.059 94.366,370.855 92.874,369.096 92.570 C 368.268 92.427,367.493 92.150,367.372 91.955 C 367.086 91.491,358.800 91.491,358.800 91.955 C 358.800 92.150,357.952 92.436,356.915 92.592 C 355.878 92.747,354.753 93.174,354.415 93.540 C 354.077 93.906,353.260 94.466,352.600 94.785 C 351.940 95.104,351.130 95.577,350.800 95.835 C 350.470 96.094,349.795 96.429,349.300 96.580 L 348.400 96.854 348.400 77.451 C 348.400 64.946,348.258 57.959,348.000 57.800 C 347.780 57.664,347.600 56.854,347.600 56.000 C 347.600 55.146,347.420 54.336,347.200 54.200 C 346.980 54.064,346.800 53.666,346.800 53.316 C 346.800 52.317,344.711 48.290,343.707 47.354 C 343.208 46.889,342.800 46.339,342.800 46.133 C 342.800 45.673,340.293 43.200,339.827 43.200 C 339.643 43.200,339.100 42.795,338.621 42.300 C 337.499 41.140,336.201 40.400,335.285 40.400 C 334.886 40.400,334.375 40.215,334.149 39.989 C 333.924 39.764,332.808 39.468,331.669 39.334 C 330.531 39.199,329.600 38.934,329.600 38.744 C 329.600 38.555,328.981 38.400,328.224 38.400 C 327.467 38.400,326.736 38.220,326.600 38.000 C 326.450 37.757,323.537 37.600,319.200 37.600 C 314.863 37.600,311.950 37.443,311.800 37.200 C 311.460 36.649,260.540 36.649,260.200 37.200 C 259.862 37.747,238.400 37.747,238.400 37.200 C 238.400 36.980,238.130 36.800,237.800 36.800 C 237.470 36.800,237.200 36.596,237.200 36.347 C 237.200 36.098,236.884 35.603,236.497 35.247 C 236.111 34.891,235.536 34.060,235.219 33.400 C 234.536 31.976,230.823 28.000,230.176 28.000 C 229.927 28.000,229.398 27.640,229.000 27.200 C 228.602 26.760,228.034 26.400,227.738 26.400 C 227.442 26.400,227.200 26.233,227.200 26.029 C 227.200 25.825,226.208 25.534,224.995 25.382 C 223.782 25.230,222.691 24.948,222.571 24.753 C 222.451 24.559,221.913 24.400,221.376 24.400 C 220.608 24.400,220.400 24.192,220.400 23.424 C 220.400 22.887,220.220 22.336,220.000 22.200 C 219.780 22.064,219.600 20.433,219.600 18.576 C 219.600 16.592,219.435 15.200,219.200 15.200 C 218.980 15.200,218.800 14.581,218.800 13.824 C 218.800 13.067,218.640 12.349,218.445 12.228 C 218.250 12.107,217.969 11.332,217.821 10.504 C 217.496 8.694,216.719 6.800,216.302 6.800 C 216.136 6.800,216.000 6.381,216.000 5.870 C 216.000 5.358,215.550 4.517,215.000 4.000 C 214.450 3.483,214.000 2.877,214.000 2.652 C 214.000 2.428,213.516 1.739,212.925 1.122 L 211.850 -0.000 189.949 -0.000 L 168.047 0.000 166.316 1.706 M196.715 12.222 C 200.845 13.948,201.800 16.160,201.800 24.000 C 201.800 33.968,201.094 34.551,189.284 34.333 C 178.865 34.141,178.275 33.621,178.065 24.445 C 177.882 16.485,178.601 14.152,181.735 12.529 C 184.428 11.135,193.661 10.946,196.715 12.222 M216.951 44.315 C 218.692 45.332,218.753 47.701,217.071 48.957 C 215.936 49.805,171.042 50.550,166.855 49.791 C 163.854 49.247,162.494 45.945,164.679 44.509 C 166.986 42.994,214.387 42.818,216.951 44.315 M269.000 53.870 C 330.142 54.063,326.697 53.897,329.594 56.794 C 332.450 59.650,332.401 59.061,332.392 90.173 C 332.382 124.450,332.439 123.978,327.848 128.320 C 321.060 134.739,317.051 133.465,314.558 124.100 C 314.224 122.843,312.740 123.682,311.020 126.100 C 307.859 130.542,299.420 140.000,298.618 140.000 C 297.344 140.000,295.521 142.727,295.236 145.059 C 294.633 149.987,292.222 152.110,286.747 152.532 C 281.777 152.916,280.123 154.867,280.034 160.454 C 279.947 165.854,277.510 168.433,272.586 168.334 C 270.511 168.293,269.948 168.739,268.405 171.647 C 267.128 174.056,263.648 177.600,262.560 177.600 C 262.032 177.600,261.600 177.780,261.600 178.000 C 261.600 178.220,261.058 178.400,260.395 178.400 C 258.493 178.400,255.829 180.188,255.164 181.910 C 254.970 182.411,254.494 182.933,254.106 183.069 C 253.718 183.206,252.860 183.707,252.200 184.182 C 251.540 184.658,250.370 185.343,249.600 185.706 C 245.125 187.815,242.000 193.005,242.000 198.328 C 242.000 199.690,241.822 200.800,241.605 200.800 C 241.387 200.800,241.095 201.513,240.956 202.385 C 240.803 203.341,240.166 204.596,239.351 205.548 C 238.608 206.417,238.000 207.270,238.000 207.445 C 238.000 207.927,235.503 210.400,235.016 210.400 C 234.782 210.400,234.412 210.802,234.195 211.293 C 233.978 211.784,233.439 212.369,232.998 212.593 C 232.262 212.966,230.453 214.448,228.787 216.042 C 228.417 216.396,227.054 217.175,225.758 217.774 C 222.379 219.335,219.584 220.734,218.200 221.556 C 216.620 222.495,212.307 223.843,209.800 224.182 C 207.641 224.474,205.600 225.211,205.600 225.698 C 205.600 225.864,205.354 226.000,205.053 226.000 C 204.340 226.000,200.800 229.540,200.800 230.253 C 200.800 230.554,200.547 230.800,200.237 230.800 C 199.424 230.800,194.624 235.721,193.853 237.344 C 193.444 238.207,193.200 239.757,193.200 241.498 C 193.200 244.459,192.988 244.840,190.714 245.978 C 189.832 246.418,189.512 246.425,189.014 246.011 C 188.592 245.662,188.243 245.629,187.900 245.906 C 187.625 246.129,186.486 246.433,185.368 246.583 C 184.048 246.761,183.141 247.127,182.780 247.628 C 182.474 248.053,182.014 248.400,181.758 248.400 C 181.222 248.400,180.769 249.592,180.542 251.600 C 179.739 258.693,174.558 262.285,169.000 259.600 C 168.120 259.175,166.995 258.821,166.500 258.814 C 166.005 258.806,165.600 258.620,165.600 258.400 C 165.600 257.714,164.565 257.956,162.216 259.191 C 159.173 260.792,155.449 261.207,153.547 260.157 C 151.892 259.244,149.601 257.193,149.597 256.622 C 149.593 256.164,147.770 255.200,146.907 255.200 C 145.894 255.200,142.167 257.341,138.776 259.871 C 136.585 261.505,134.012 262.838,130.400 264.210 C 129.410 264.586,127.430 265.400,126.000 266.021 C 124.570 266.641,122.270 267.348,120.890 267.593 C 117.683 268.163,116.294 269.004,113.714 271.941 C 111.256 274.738,109.253 275.600,105.206 275.600 C 102.980 275.600,102.335 275.765,101.178 276.632 C 97.587 279.320,96.155 279.762,91.274 279.687 C 84.259 279.579,82.192 278.715,79.565 274.797 C 66.726 255.645,65.374 250.665,69.790 238.800 C 71.582 233.987,71.477 232.446,68.877 225.400 C 67.157 220.736,66.990 218.320,67.971 212.282 C 68.427 209.477,68.800 206.226,68.800 205.056 C 68.800 202.986,70.194 197.796,71.984 193.200 C 72.975 190.657,73.775 188.310,74.235 186.600 C 74.412 185.940,74.576 181.710,74.598 177.200 C 74.641 168.313,74.536 168.849,77.461 162.600 C 79.496 158.251,82.274 155.582,86.400 154.013 C 92.111 151.840,92.832 150.992,95.765 143.000 C 96.573 140.800,97.396 138.640,97.595 138.200 C 97.794 137.760,98.337 135.960,98.803 134.200 C 100.804 126.631,106.854 117.890,111.082 116.461 C 111.917 116.178,112.960 115.800,113.400 115.620 C 113.840 115.440,116.360 114.984,119.000 114.608 C 126.408 113.552,129.988 112.100,132.800 109.010 C 133.350 108.406,134.880 107.086,136.200 106.077 C 137.520 105.068,139.369 103.577,140.310 102.762 C 142.537 100.834,145.909 98.861,149.400 97.445 C 154.060 95.554,154.579 95.288,155.466 94.326 C 156.382 93.333,157.362 90.758,157.803 88.188 C 157.953 87.315,158.234 86.060,158.427 85.400 C 158.620 84.740,159.066 83.210,159.418 82.000 C 160.608 77.915,163.638 73.200,165.075 73.200 C 165.225 73.200,165.755 72.818,166.253 72.350 C 167.321 71.347,167.037 70.930,164.600 69.928 C 160.320 68.167,161.310 68.200,112.667 68.200 L 66.335 68.200 65.167 69.506 L 64.000 70.813 64.023 111.906 C 64.035 134.508,64.204 164.700,64.399 179.000 C 64.921 217.446,64.911 216.247,64.950 243.900 C 64.958 249.345,64.720 260.689,64.422 269.110 C 63.819 286.109,63.902 287.115,65.987 288.193 C 66.996 288.715,73.891 288.791,120.072 288.793 C 153.262 288.794,174.641 288.948,177.400 289.207 C 179.820 289.433,183.600 289.789,185.800 289.996 C 192.227 290.602,217.852 290.463,228.400 289.766 C 235.891 289.270,243.852 289.170,267.600 289.272 C 319.986 289.497,314.896 289.783,316.251 286.541 C 317.076 284.566,316.861 228.758,316.014 224.921 C 315.536 222.755,315.549 221.971,316.120 218.721 C 316.566 216.179,316.830 211.705,316.952 204.600 C 317.208 189.656,318.233 185.440,322.877 180.229 C 327.340 175.222,330.763 175.619,331.629 181.245 C 331.877 182.854,331.981 204.307,331.911 239.200 L 331.800 294.600 330.948 296.443 C 329.941 298.619,328.158 300.061,325.400 300.929 C 322.560 301.823,308.750 301.941,173.000 302.237 L 57.400 302.489 55.110 301.619 C 52.365 300.577,50.288 298.367,49.642 295.799 C 49.021 293.333,49.018 62.873,49.639 60.637 C 50.631 57.063,53.343 54.705,57.003 54.235 C 57.882 54.123,93.242 53.927,135.582 53.800 C 177.922 53.673,212.653 53.481,212.761 53.372 C 212.870 53.264,213.238 53.292,213.579 53.435 C 213.921 53.579,238.860 53.774,269.000 53.870 M212.600 69.904 C 210.840 70.237,209.310 70.643,209.200 70.808 C 209.090 70.973,208.640 71.182,208.200 71.272 C 207.532 71.410,207.633 71.550,208.809 72.121 C 211.564 73.458,223.540 73.060,226.500 71.533 C 230.132 69.659,220.116 68.485,212.600 69.904 M116.000 75.200 C 117.780 76.980,116.563 80.000,114.066 80.000 C 112.050 80.000,110.800 79.066,110.800 77.559 C 110.800 74.964,114.215 73.415,116.000 75.200 M137.596 81.397 C 139.429 83.055,138.910 86.709,136.679 87.863 C 132.342 90.105,128.211 84.927,131.618 81.520 C 133.030 80.109,136.103 80.045,137.596 81.397 M189.300 84.265 C 189.025 84.376,188.800 84.747,188.800 85.089 C 188.800 85.432,188.537 85.912,188.216 86.156 C 187.895 86.400,187.404 87.500,187.124 88.600 C 186.844 89.700,186.297 90.891,185.908 91.247 C 185.519 91.603,185.200 92.098,185.200 92.347 C 185.200 92.596,184.970 92.800,184.688 92.800 C 184.407 92.800,183.917 93.160,183.600 93.600 C 183.225 94.120,182.565 94.400,181.712 94.400 C 180.466 94.400,180.400 94.474,180.400 95.880 C 180.400 97.031,180.507 97.253,180.880 96.880 C 181.144 96.616,181.774 96.400,182.280 96.400 C 182.786 96.400,183.200 96.259,183.200 96.086 C 183.200 95.914,183.785 95.429,184.500 95.009 C 186.301 93.951,186.800 93.391,186.800 92.429 C 186.800 91.973,186.990 91.600,187.223 91.600 C 188.512 91.600,191.600 87.687,191.600 86.053 C 191.600 85.144,191.435 84.400,191.233 84.400 C 191.031 84.400,190.626 84.324,190.333 84.232 C 190.040 84.139,189.575 84.154,189.300 84.265 M91.841 87.220 C 99.040 90.705,99.251 99.444,92.215 102.751 C 85.627 105.848,77.841 97.413,81.707 91.367 C 84.543 86.933,88.176 85.446,91.841 87.220 M110.408 101.004 C 112.366 102.016,112.989 104.012,112.054 106.270 C 110.797 109.305,105.145 109.244,104.571 106.188 C 103.884 102.525,107.367 99.431,110.408 101.004 M363.568 110.300 C 366.741 112.893,364.080 117.524,351.556 131.200 C 347.937 135.153,347.528 135.652,335.803 150.400 C 331.868 155.350,327.276 161.020,325.600 163.000 C 323.924 164.980,320.237 169.480,317.407 173.000 C 314.577 176.520,310.669 181.137,308.723 183.260 C 305.361 186.929,300.849 192.145,292.798 201.671 C 285.426 210.394,284.021 210.954,278.263 207.464 C 276.977 206.685,275.357 205.926,274.663 205.778 C 269.228 204.621,266.473 199.137,268.964 194.436 C 271.500 189.651,323.376 138.464,338.416 125.907 C 340.717 123.985,344.400 120.882,346.600 119.011 C 356.533 110.563,361.051 108.243,363.568 110.300 M79.208 113.804 C 82.335 115.421,81.302 119.760,77.791 119.760 C 74.690 119.760,73.373 116.565,75.569 114.369 C 76.894 113.044,77.544 112.944,79.208 113.804 M88.562 133.620 C 92.744 137.293,90.390 144.002,84.920 143.999 C 80.344 143.998,77.491 139.479,79.454 135.342 C 80.889 132.319,85.982 131.355,88.562 133.620 M267.313 203.636 C 270.368 204.664,270.436 204.719,272.859 208.188 C 273.939 209.735,275.514 211.872,276.359 212.938 C 278.856 216.086,279.386 218.884,278.001 221.598 C 277.064 223.435,276.438 224.084,267.158 232.855 C 257.321 242.154,257.646 242.137,249.341 233.788 C 239.436 223.832,239.522 223.366,253.901 208.891 C 260.107 202.643,262.071 201.874,267.313 203.636 M301.960 229.380 C 305.687 231.307,305.071 237.057,300.993 238.402 C 295.673 240.158,292.141 232.497,296.926 229.580 C 298.439 228.657,300.412 228.579,301.960 229.380 M238.097 233.119 C 245.390 236.710,250.341 245.583,249.252 253.114 C 246.830 269.864,228.528 281.499,204.266 281.713 C 191.854 281.822,190.431 279.938,197.328 272.529 C 202.888 266.557,203.894 264.841,206.196 257.400 C 209.653 246.225,215.125 237.622,220.944 234.211 C 226.155 231.158,233.201 230.709,238.097 233.119 M295.864 248.354 C 303.209 254.249,303.810 257.504,298.590 263.141 C 293.890 268.218,290.270 268.100,285.334 262.711 C 281.440 258.459,281.475 255.848,285.490 250.979 C 289.391 246.250,292.319 245.509,295.864 248.354 M272.991 250.100 C 274.497 251.409,274.708 253.441,273.520 255.195 C 271.974 257.476,269.627 257.803,267.697 256.004 C 264.017 252.576,269.194 246.801,272.991 250.100 M182.826 264.414 C 184.727 265.431,183.012 268.550,180.676 268.324 C 178.571 268.120,178.760 264.694,180.899 264.282 C 181.395 264.187,181.857 264.084,181.926 264.054 C 181.996 264.025,182.401 264.186,182.826 264.414 M144.469 267.862 C 145.662 268.942,145.444 271.418,144.031 272.831 C 142.334 274.527,140.106 274.138,138.973 271.947 C 137.482 269.064,142.047 265.671,144.469 267.862 M162.110 269.259 C 165.686 271.173,164.975 277.238,161.058 278.221 C 156.681 279.320,153.913 275.350,155.806 270.688 C 156.461 269.075,160.188 268.230,162.110 269.259 M269.269 276.262 C 270.895 277.734,269.821 279.748,267.526 279.527 C 266.363 279.416,266.185 279.245,266.078 278.138 C 265.883 276.137,267.852 274.980,269.269 276.262 M334.466 307.463 C 339.851 309.951,338.792 319.187,332.941 320.762 C 331.757 321.081,292.056 321.175,189.951 321.102 L 48.600 321.000 47.000 320.167 C 42.600 317.875,42.086 310.862,46.098 307.866 C 47.911 306.513,49.119 306.502,192.400 306.552 L 332.600 306.600 334.466 307.463 M122.400 330.301 C 125.907 332.053,124.197 338.501,115.014 358.154 C 102.987 383.894,102.874 384.041,94.956 384.108 C 87.177 384.174,86.046 381.241,90.247 371.897 C 93.089 365.576,97.370 355.064,99.853 348.312 C 103.952 337.164,107.714 331.011,111.037 330.017 C 113.289 329.343,120.862 329.532,122.400 330.301 M270.600 330.046 C 273.692 330.901,277.564 336.711,280.841 345.414 C 281.749 347.826,285.003 355.823,288.072 363.184 C 296.442 383.257,296.370 384.204,286.471 384.196 C 277.878 384.190,278.180 384.573,265.560 357.706 C 255.851 337.037,254.544 331.918,258.531 330.183 C 260.098 329.502,268.292 329.409,270.600 330.046 M197.108 331.406 C 200.515 333.428,200.871 335.967,200.817 357.919 C 200.753 384.157,200.922 383.677,191.683 383.942 C 184.564 384.146,182.226 383.262,180.734 379.800 C 180.026 378.159,179.738 341.835,180.402 338.009 C 181.555 331.366,183.034 330.298,190.800 330.499 C 194.877 330.605,196.042 330.772,197.108 331.406 " stroke="none" fill="#091638" fill-rule="evenodd"></path><path id="path3" d="M292.800 59.613 C 294.230 59.774,296.735 59.928,298.367 59.953 C 299.998 59.979,301.246 60.087,301.140 60.194 C 300.935 60.399,285.867 61.557,282.048 61.661 C 280.812 61.695,282.140 61.876,285.000 62.063 C 287.860 62.250,295.359 62.294,301.663 62.162 C 322.025 61.735,321.817 61.504,322.186 85.000 C 322.464 102.673,323.141 119.493,323.623 120.700 C 324.141 121.996,325.155 121.807,325.776 120.300 C 326.410 118.761,327.396 83.050,327.150 70.529 C 326.916 58.581,328.255 59.309,306.509 59.314 C 297.440 59.317,291.354 59.449,292.800 59.613 M323.856 60.370 C 326.513 61.576,326.928 64.032,325.557 70.424 C 325.041 72.833,324.614 72.490,323.476 68.752 C 322.738 66.328,320.634 63.608,318.232 61.971 C 316.587 60.851,316.587 60.304,318.233 59.947 C 320.397 59.479,322.191 59.614,323.856 60.370 M244.200 94.300 C 242.487 94.455,240.027 95.236,238.400 96.143 C 234.374 98.387,232.099 99.537,231.200 99.782 C 230.650 99.932,229.660 100.304,229.000 100.607 C 228.340 100.911,226.720 101.469,225.400 101.846 C 221.045 103.092,215.600 107.004,215.600 108.887 C 215.600 109.080,215.256 109.951,214.835 110.821 C 213.950 112.653,214.650 113.600,216.889 113.600 C 217.500 113.600,218.000 113.735,218.000 113.900 C 218.000 114.065,219.575 114.172,221.500 114.138 C 223.861 114.095,226.496 114.387,229.600 115.034 C 232.130 115.561,235.285 115.994,236.611 115.996 C 243.887 116.008,241.710 121.480,232.380 126.632 C 224.708 130.867,223.911 131.665,218.604 140.423 C 214.414 147.338,212.904 148.758,204.164 154.000 C 196.658 158.502,193.314 164.560,192.613 174.923 C 192.041 183.391,189.130 187.121,179.118 192.209 C 173.930 194.847,172.551 195.888,166.920 201.418 C 163.314 204.960,160.304 207.200,159.150 207.200 C 158.944 207.200,158.196 207.861,157.488 208.669 C 156.780 209.477,154.884 211.112,153.277 212.302 C 150.567 214.308,149.326 216.448,151.067 216.114 C 152.706 215.800,155.165 215.520,158.933 215.218 C 162.937 214.897,163.529 214.737,166.733 213.102 C 168.640 212.129,170.740 211.199,171.400 211.036 C 182.944 208.186,199.508 194.458,203.189 184.691 C 206.807 175.091,206.928 174.968,217.000 170.623 C 217.880 170.243,218.913 169.768,219.295 169.566 C 219.677 169.365,220.504 169.200,221.133 169.200 C 223.512 169.200,225.311 167.701,230.200 161.647 C 233.058 158.107,233.206 157.641,232.949 153.000 L 232.728 149.000 234.091 146.800 C 234.841 145.590,236.703 142.558,238.227 140.063 C 243.367 131.653,245.538 129.543,253.000 125.701 C 262.693 120.710,265.005 115.416,259.762 110.215 C 257.328 107.800,257.198 107.202,258.198 103.014 C 259.237 98.662,257.863 95.982,254.288 95.384 C 253.360 95.229,252.510 94.961,252.400 94.789 C 252.192 94.464,246.291 94.112,244.200 94.300 M312.600 158.428 C 310.389 160.276,305.207 165.647,305.232 166.064 C 305.255 166.468,305.313 166.477,305.465 166.100 C 305.576 165.825,305.918 165.600,306.224 165.600 C 306.874 165.600,310.547 162.080,312.183 159.889 C 313.253 158.456,313.469 157.702,312.600 158.428 M301.723 169.112 C 301.020 169.710,299.445 171.002,298.223 171.982 C 296.163 173.634,288.383 181.386,283.151 187.000 C 281.921 188.320,279.555 190.717,277.894 192.326 C 274.641 195.477,273.858 197.015,275.060 197.893 C 276.131 198.677,276.735 198.298,279.800 194.922 C 281.340 193.225,285.846 188.499,289.814 184.419 C 298.533 175.452,302.800 170.356,302.800 168.912 C 302.800 168.667,303.025 168.376,303.300 168.265 C 303.575 168.154,303.620 168.054,303.400 168.043 C 303.180 168.032,302.425 168.513,301.723 169.112 M213.023 186.889 C 210.814 190.042,214.723 193.713,217.418 191.018 C 219.441 188.995,218.055 186.000,215.097 186.000 C 214.050 186.000,213.472 186.248,213.023 186.889 M261.000 209.003 C 257.652 211.242,248.893 220.652,248.020 222.948 C 247.371 224.655,248.297 226.208,252.270 230.072 C 257.823 235.473,257.381 235.574,266.348 226.855 C 274.545 218.885,274.530 218.941,269.987 212.863 C 266.545 208.259,263.846 207.100,261.000 209.003 M267.146 210.543 C 269.630 213.186,268.661 215.112,260.728 223.302 C 255.000 229.215,254.503 229.494,252.004 228.202 C 247.765 226.010,248.414 224.378,257.095 215.411 C 263.392 208.905,264.915 208.168,267.146 210.543 M85.075 213.122 C 83.716 214.540,83.710 215.714,85.054 216.771 C 87.129 218.403,90.181 217.190,89.004 215.200 C 88.679 214.650,88.299 213.885,88.160 213.500 C 88.021 213.115,87.647 212.800,87.330 212.800 C 87.012 212.800,86.864 212.620,87.000 212.400 C 87.542 211.523,86.083 212.070,85.075 213.122 " stroke="none" fill="#3a5fb9" fill-rule="evenodd"></path><path id="path4" d="M185.200 11.563 C 179.169 12.417,177.844 14.809,178.065 24.445 C 178.275 33.621,178.865 34.141,189.284 34.333 C 201.094 34.551,201.800 33.968,201.800 24.000 C 201.800 13.018,197.527 9.817,185.200 11.563 M194.969 13.183 C 199.130 14.148,200.600 16.972,200.600 24.000 C 200.600 32.498,200.009 33.000,190.000 33.000 C 179.740 33.000,179.400 32.692,179.400 23.417 C 179.400 15.980,180.131 14.348,183.987 13.176 C 185.416 12.742,193.089 12.747,194.969 13.183 M168.779 43.543 C 162.824 44.050,161.363 48.795,166.855 49.791 C 171.042 50.550,215.936 49.805,217.071 48.957 C 218.753 47.701,218.692 45.332,216.951 44.315 C 215.628 43.543,176.208 42.911,168.779 43.543 M215.626 45.214 C 216.065 45.449,216.400 46.049,216.400 46.600 C 216.400 47.151,216.065 47.751,215.626 47.986 C 214.601 48.535,168.067 48.558,166.626 48.010 C 165.297 47.505,165.223 45.904,166.500 45.288 C 167.725 44.697,214.529 44.627,215.626 45.214 M166.200 55.200 C 164.880 55.346,175.860 55.474,190.600 55.485 C 205.340 55.496,216.860 55.368,216.200 55.200 C 214.737 54.828,169.565 54.828,166.200 55.200 M86.642 90.107 C 83.472 91.924,82.599 96.033,84.840 98.585 C 85.522 99.362,86.242 99.898,86.440 99.776 C 86.637 99.653,87.199 99.834,87.688 100.177 C 90.817 102.368,95.683 97.972,94.656 93.881 C 94.267 92.330,92.018 90.043,90.454 89.608 C 88.510 89.068,88.436 89.078,86.642 90.107 M91.188 94.100 C 91.738 95.088,91.737 95.312,91.187 96.300 C 89.986 98.456,86.800 97.633,86.800 95.167 C 86.800 92.686,89.971 91.916,91.188 94.100 M218.000 98.972 C 205.515 101.208,202.077 104.064,193.416 119.400 C 190.457 124.639,186.433 127.472,184.580 125.620 C 183.182 124.224,180.891 124.669,178.673 126.766 C 176.094 129.205,174.518 129.554,169.400 128.820 C 147.709 125.706,141.891 127.151,131.686 138.184 C 126.097 144.227,125.151 145.992,122.998 154.400 C 121.237 161.273,117.009 166.533,111.575 168.609 C 107.787 170.057,106.652 171.426,106.961 174.171 C 107.697 180.686,107.697 181.073,106.970 182.648 C 105.294 186.275,102.777 189.506,99.376 192.400 C 98.729 192.950,97.565 193.940,96.789 194.600 C 94.946 196.168,94.552 198.916,96.070 199.622 C 98.279 200.650,98.504 201.516,98.438 208.741 C 98.400 212.781,98.184 215.951,97.889 216.800 C 97.025 219.282,97.234 232.553,98.177 235.095 C 100.711 241.925,104.746 243.559,114.628 241.757 C 126.799 239.538,130.732 237.317,136.641 229.327 C 140.293 224.388,149.581 214.961,153.800 211.910 C 154.900 211.115,156.418 209.822,157.174 209.037 L 158.548 207.609 157.621 206.622 C 157.111 206.079,156.583 205.666,156.447 205.703 C 156.108 205.795,154.335 204.792,153.680 204.137 C 152.857 203.314,151.285 203.485,147.169 204.847 C 141.351 206.773,138.919 209.074,134.965 216.400 C 132.212 221.499,130.657 222.210,126.181 220.418 C 121.200 218.423,119.523 216.760,118.963 213.258 C 118.558 210.724,117.800 210.053,115.000 209.752 C 109.443 209.155,108.806 207.956,112.045 204.183 C 114.022 201.880,115.244 199.634,116.844 195.368 C 118.379 191.275,120.602 189.470,126.916 187.185 C 133.350 184.857,134.632 182.960,135.395 174.640 C 136.205 165.801,137.480 163.279,143.813 157.989 C 147.417 154.979,148.156 153.796,146.973 152.930 C 146.002 152.221,143.165 152.257,141.746 152.998 C 136.896 155.529,135.658 153.326,138.213 146.710 C 143.155 133.914,150.112 130.844,161.786 136.309 C 168.820 139.601,185.270 136.098,194.200 129.405 C 196.180 127.921,198.569 126.357,199.509 125.930 C 200.450 125.503,201.122 124.997,201.003 124.805 C 200.884 124.613,200.970 124.342,201.193 124.204 C 201.417 124.066,201.600 123.684,201.600 123.354 C 201.600 121.575,205.599 115.865,206.332 116.598 C 206.444 116.710,206.884 116.486,207.310 116.101 C 207.735 115.715,208.200 115.422,208.342 115.449 C 208.848 115.545,209.808 115.040,210.287 114.425 C 210.555 114.081,210.780 113.957,210.787 114.149 C 210.794 114.341,211.070 114.274,211.400 114.000 C 211.730 113.726,212.000 113.642,212.000 113.813 C 212.000 113.984,212.379 113.781,212.842 113.362 C 213.305 112.943,213.800 112.645,213.942 112.700 C 214.084 112.755,214.211 112.665,214.224 112.500 C 214.238 112.335,214.553 111.503,214.924 110.651 C 215.296 109.799,215.600 108.975,215.600 108.819 C 215.600 107.002,221.107 103.080,225.400 101.839 C 228.684 100.890,229.600 100.489,229.600 99.999 C 229.600 98.701,222.851 98.104,218.000 98.972 M160.941 105.417 C 159.556 106.024,157.885 107.891,158.229 108.447 C 158.349 108.641,158.302 108.801,158.124 108.802 C 157.946 108.803,157.753 109.613,157.696 110.602 C 157.634 111.676,157.765 112.400,158.020 112.400 C 158.255 112.400,158.340 112.573,158.209 112.785 C 158.078 112.997,158.305 113.492,158.715 113.885 C 160.028 115.147,162.000 116.811,162.000 116.657 C 162.000 116.575,162.715 116.638,163.589 116.798 C 164.463 116.958,165.083 116.934,164.966 116.744 C 164.849 116.555,165.198 116.400,165.743 116.400 C 166.806 116.400,169.200 113.814,169.200 112.666 C 169.200 112.326,169.396 111.926,169.636 111.778 C 170.080 111.504,169.781 108.796,169.263 108.401 C 169.118 108.290,168.805 107.848,168.568 107.418 C 167.400 105.305,163.520 104.287,160.941 105.417 M165.782 107.093 C 168.732 109.287,168.635 113.144,165.584 114.946 C 163.890 115.947,162.560 115.757,160.955 114.286 C 156.772 110.453,161.275 103.742,165.782 107.093 M82.385 201.101 C 78.829 202.059,77.779 205.748,80.727 206.923 C 84.330 208.360,88.371 204.234,85.664 201.882 C 84.932 201.245,83.295 200.856,82.385 201.101 M89.044 210.757 C 87.451 211.006,86.019 212.800,87.413 212.800 C 87.736 212.800,88.000 213.048,88.000 213.351 C 88.000 213.654,88.283 214.137,88.628 214.423 C 88.973 214.710,89.179 215.239,89.084 215.599 C 88.771 216.796,91.090 216.447,91.555 215.227 C 92.285 213.311,92.383 212.601,91.997 212.000 C 91.785 211.670,91.609 211.557,91.606 211.749 C 91.603 211.941,91.332 211.876,91.004 211.604 C 90.677 211.332,90.507 210.950,90.628 210.755 C 90.749 210.560,90.792 210.426,90.724 210.457 C 90.656 210.488,89.900 210.623,89.044 210.757 M225.119 232.351 C 216.858 235.071,210.501 243.486,206.196 257.400 C 203.894 264.841,202.888 266.557,197.328 272.529 C 190.431 279.938,191.854 281.822,204.266 281.713 C 228.528 281.499,246.830 269.864,249.252 253.114 C 251.145 240.024,237.491 228.277,225.119 232.351 M238.102 234.168 C 253.123 241.768,251.775 261.566,235.513 272.161 C 225.263 278.840,218.245 280.876,205.200 280.955 C 193.253 281.028,192.232 279.612,199.005 272.369 C 203.938 267.094,204.918 265.358,207.618 257.108 C 212.075 243.493,218.162 235.625,226.000 233.351 C 229.285 232.398,235.421 232.812,238.102 234.168 M328.131 237.800 C 328.133 239.340,328.205 239.921,328.292 239.091 C 328.379 238.261,328.377 237.001,328.289 236.291 C 328.200 235.581,328.129 236.260,328.131 237.800 M327.547 249.600 L 327.432 258.600 327.180 252.600 L 326.928 246.600 326.969 253.699 C 326.991 257.604,326.871 260.484,326.701 260.099 C 326.529 259.711,326.494 260.084,326.621 260.939 C 326.776 261.976,326.712 262.393,326.426 262.216 C 326.191 262.071,325.980 261.378,325.955 260.676 C 325.917 259.596,325.856 259.685,325.553 261.259 C 325.356 262.281,324.927 263.631,324.600 264.259 L 324.005 265.400 323.963 263.800 C 323.872 260.281,322.849 267.400,322.825 271.729 C 322.803 275.576,322.733 275.990,322.200 275.457 C 321.773 275.030,321.600 273.990,321.600 271.852 C 321.600 270.199,321.465 268.764,321.300 268.662 C 321.135 268.560,320.977 272.554,320.949 277.538 C 320.911 284.453,320.754 287.050,320.289 288.500 C 319.953 289.545,319.841 290.400,320.039 290.400 C 320.738 290.400,320.390 291.149,319.570 291.410 C 319.113 291.554,318.837 291.770,318.956 291.889 C 319.075 292.008,318.972 292.487,318.728 292.953 C 318.291 293.785,318.298 293.787,319.117 293.061 C 320.080 292.206,321.130 292.520,320.370 293.436 C 320.011 293.868,320.018 294.140,320.400 294.600 C 320.674 294.930,320.761 295.200,320.593 295.200 C 320.425 295.200,320.071 294.903,319.805 294.539 C 319.465 294.074,319.238 294.015,319.037 294.339 C 318.881 294.593,318.928 294.800,319.141 294.800 C 319.355 294.800,319.480 295.250,319.420 295.800 C 319.359 296.350,319.476 296.800,319.679 296.800 C 319.881 296.800,319.929 296.991,319.785 297.224 C 319.620 297.491,319.326 297.381,318.990 296.924 C 318.498 296.255,318.437 296.251,318.195 296.876 C 318.051 297.247,317.363 297.687,316.667 297.853 L 315.400 298.155 317.200 298.440 C 322.202 299.232,327.291 297.949,328.208 295.666 C 328.972 293.762,329.065 288.546,328.726 266.600 C 328.342 241.762,327.757 233.322,327.547 249.600 M289.193 250.149 C 284.943 253.046,283.785 257.310,286.367 260.558 C 290.067 265.215,293.572 265.667,297.040 261.934 C 300.578 258.125,300.549 255.357,296.933 251.960 C 293.667 248.891,291.710 248.434,289.193 250.149 M322.524 253.000 C 322.526 254.320,322.601 254.812,322.690 254.093 C 322.779 253.374,322.777 252.294,322.686 251.693 C 322.595 251.092,322.522 251.680,322.524 253.000 M325.737 254.600 C 325.739 256.360,325.809 257.030,325.893 256.089 C 325.978 255.149,325.977 253.709,325.891 252.889 C 325.805 252.070,325.736 252.840,325.737 254.600 M293.332 252.546 C 297.436 254.260,297.798 259.036,293.975 261.013 C 291.779 262.149,288.928 260.612,287.997 257.792 C 286.969 254.675,290.386 251.315,293.332 252.546 M322.148 268.000 C 322.148 270.310,322.214 271.255,322.295 270.100 C 322.376 268.945,322.376 267.055,322.295 265.900 C 322.214 264.745,322.148 265.690,322.148 268.000 M49.674 306.793 C 42.657 307.598,40.791 316.932,47.000 320.167 L 48.600 321.000 189.951 321.102 C 292.056 321.175,331.757 321.081,332.941 320.762 C 338.792 319.187,339.851 309.951,334.466 307.463 L 332.600 306.600 192.400 306.552 C 115.290 306.525,51.063 306.634,49.674 306.793 M333.473 309.177 C 337.552 311.029,337.435 317.646,333.291 319.524 C 330.746 320.678,50.004 320.556,48.042 319.400 C 43.519 316.736,43.897 310.238,48.657 308.811 C 51.383 307.994,331.661 308.355,333.473 309.177 M111.037 330.017 C 107.714 331.011,103.952 337.164,99.853 348.312 C 97.370 355.064,93.089 365.576,90.247 371.897 C 86.046 381.241,87.177 384.174,94.956 384.108 C 102.874 384.041,102.987 383.894,115.014 358.154 C 124.197 338.501,125.907 332.053,122.400 330.301 C 120.862 329.532,113.289 329.343,111.037 330.017 M258.531 330.183 C 254.544 331.918,255.851 337.037,265.560 357.706 C 278.180 384.573,277.878 384.190,286.471 384.196 C 296.370 384.204,296.442 383.257,288.072 363.184 C 285.003 355.823,281.749 347.826,280.841 345.414 C 277.564 336.711,273.692 330.901,270.600 330.046 C 268.292 329.409,260.098 329.502,258.531 330.183 M122.174 331.575 C 124.203 333.482,122.469 339.424,115.402 354.779 C 102.420 382.987,102.267 383.201,95.240 383.199 C 88.444 383.198,87.532 380.655,91.261 372.108 C 94.938 363.682,97.611 357.159,101.011 348.310 C 105.441 336.781,107.872 332.584,110.954 331.143 C 113.530 329.938,120.726 330.215,122.174 331.575 M184.083 331.173 C 182.072 332.114,181.117 333.887,180.402 338.009 C 179.738 341.835,180.026 378.159,180.734 379.800 C 182.226 383.262,184.564 384.146,191.683 383.942 C 200.922 383.677,200.753 384.157,200.817 357.919 C 200.882 331.213,200.715 330.756,190.800 330.499 C 186.457 330.386,185.574 330.475,184.083 331.173 M271.041 331.309 C 273.756 332.732,276.437 337.168,279.967 346.077 C 281.040 348.785,283.582 354.960,285.616 359.800 C 295.467 383.243,295.461 383.545,285.173 383.131 C 278.321 382.856,278.467 383.065,265.447 354.980 C 256.887 336.515,255.906 332.055,260.109 330.716 C 261.794 330.179,269.704 330.608,271.041 331.309 M196.678 332.231 C 199.736 334.467,200.106 337.649,199.935 360.271 C 199.763 383.122,199.869 382.816,191.986 383.133 C 185.542 383.392,182.483 382.120,181.613 378.819 C 181.004 376.505,180.942 339.841,181.543 337.125 C 182.636 332.186,184.355 331.160,191.278 331.315 C 194.864 331.396,195.738 331.544,196.678 332.231 " stroke="none" fill="#5d4977" fill-rule="evenodd"></path><path id="path5" d="M274.400 66.009 C 275.830 66.173,284.830 66.335,294.400 66.371 C 313.647 66.442,314.863 66.550,316.456 68.332 C 317.901 69.950,317.882 69.652,318.392 98.200 C 318.948 129.356,319.206 130.650,324.352 128.025 C 329.601 125.347,329.916 123.964,330.144 102.600 L 330.328 85.400 329.804 96.600 C 329.516 102.760,329.257 110.320,329.230 113.400 C 329.151 122.337,327.170 126.800,323.282 126.800 C 320.654 126.800,320.623 126.458,319.199 81.289 C 318.661 64.202,321.329 65.813,293.471 65.756 C 281.552 65.732,272.970 65.846,274.400 66.009 M182.900 66.300 C 187.245 66.364,194.355 66.364,198.700 66.300 C 203.045 66.235,199.490 66.182,190.800 66.182 C 182.110 66.182,178.555 66.235,182.900 66.300 M261.000 78.033 C 253.182 79.754,251.839 80.293,246.215 83.965 C 244.466 85.107,242.397 86.323,241.617 86.668 C 240.838 87.013,238.310 88.198,236.000 89.301 C 230.989 91.693,230.079 91.964,225.400 92.459 C 216.408 93.410,214.002 93.071,213.998 90.851 C 213.988 86.461,210.317 84.280,208.583 87.634 C 207.948 88.861,208.135 92.589,208.853 93.033 C 209.542 93.458,209.188 94.824,208.300 95.167 C 207.805 95.358,206.590 96.802,205.600 98.375 C 199.565 107.967,187.288 120.216,181.745 122.177 C 180.015 122.788,177.880 123.770,177.000 124.358 C 174.862 125.786,171.792 127.200,170.828 127.200 C 170.399 127.200,169.936 127.380,169.800 127.600 C 169.664 127.820,168.618 128.018,167.476 128.040 L 165.400 128.080 167.000 128.481 C 167.880 128.701,170.334 128.908,172.454 128.941 L 176.308 129.000 178.580 126.853 C 180.894 124.666,183.158 124.201,184.580 125.620 C 186.433 127.472,190.457 124.639,193.416 119.400 C 201.088 105.815,204.837 102.119,213.039 100.051 C 217.671 98.883,222.463 98.280,224.879 98.561 C 232.068 99.399,232.556 99.377,234.848 98.108 C 236.032 97.454,237.630 96.573,238.400 96.151 C 241.212 94.610,242.892 94.274,247.564 94.318 C 250.075 94.342,252.235 94.528,252.364 94.732 C 252.494 94.935,253.360 95.229,254.288 95.384 C 257.863 95.982,259.237 98.662,258.198 103.014 C 257.198 107.202,257.328 107.800,259.762 110.215 C 265.005 115.416,262.693 120.710,253.000 125.701 C 245.538 129.543,243.367 131.653,238.227 140.063 C 236.703 142.558,234.841 145.590,234.091 146.800 L 232.728 149.000 232.949 153.000 C 233.206 157.641,233.058 158.107,230.200 161.647 C 225.311 167.701,223.512 169.200,221.133 169.200 C 220.504 169.200,219.677 169.365,219.295 169.566 C 218.913 169.768,217.880 170.243,217.000 170.623 C 206.928 174.968,206.807 175.091,203.189 184.691 C 201.317 189.659,198.242 193.441,190.600 200.172 C 185.452 204.708,176.488 209.780,171.400 211.036 C 170.740 211.199,168.640 212.129,166.733 213.102 C 163.527 214.738,162.939 214.897,158.933 215.216 C 154.929 215.536,153.602 215.694,151.048 216.157 C 148.283 216.658,141.141 223.173,136.649 229.293 C 130.776 237.295,126.819 239.534,114.628 241.757 C 104.746 243.559,100.711 241.925,98.177 235.095 C 97.234 232.553,97.025 219.282,97.889 216.800 C 98.184 215.951,98.400 212.781,98.438 208.741 C 98.504 201.516,98.279 200.650,96.070 199.622 C 94.552 198.916,94.946 196.168,96.789 194.600 C 97.565 193.940,98.729 192.950,99.376 192.400 C 102.777 189.506,105.294 186.275,106.970 182.648 C 107.697 181.073,107.697 180.686,106.961 174.171 C 106.652 171.426,107.787 170.057,111.575 168.609 C 117.009 166.533,121.237 161.273,122.998 154.400 C 125.151 145.992,126.097 144.227,131.686 138.184 C 138.156 131.189,145.153 127.288,151.400 127.194 C 152.452 127.178,152.509 127.123,151.859 126.745 C 149.943 125.631,142.721 126.549,137.400 128.582 C 128.457 131.999,125.594 132.369,123.693 130.355 C 123.093 129.720,122.422 129.194,122.201 129.186 C 121.981 129.179,121.096 128.840,120.235 128.433 C 117.896 127.326,115.348 128.310,112.360 131.475 C 108.636 135.418,108.499 138.943,111.931 142.454 C 113.251 143.804,113.943 151.893,112.800 152.600 C 112.580 152.736,112.399 153.782,112.398 154.924 C 112.397 156.915,112.133 157.630,109.859 161.800 C 109.499 162.460,109.204 163.211,109.202 163.469 C 109.201 163.727,108.693 164.447,108.073 165.069 C 104.336 168.818,103.216 171.842,103.949 176.203 C 104.915 181.953,102.983 184.592,94.600 188.976 C 92.180 190.241,89.030 192.133,87.600 193.180 C 86.170 194.227,83.906 195.658,82.569 196.361 C 77.841 198.845,75.109 203.002,72.978 210.956 C 71.189 217.634,71.834 221.005,75.770 225.552 C 76.795 226.736,77.879 228.176,78.179 228.752 C 79.458 231.211,80.471 231.636,85.394 231.778 C 90.127 231.914,90.800 232.070,90.800 233.024 C 90.800 233.341,90.980 233.600,91.200 233.600 C 91.420 233.600,91.600 234.095,91.599 234.700 C 91.599 236.015,93.619 240.387,94.230 240.395 C 94.768 240.401,96.400 242.108,96.400 242.664 C 96.400 242.891,96.751 243.393,97.179 243.781 C 97.655 244.212,98.005 245.129,98.079 246.140 C 98.258 248.593,99.371 249.010,104.205 248.440 C 106.257 248.198,108.175 248.082,108.467 248.181 C 108.760 248.281,110.420 248.456,112.156 248.570 C 114.297 248.710,115.547 248.990,116.043 249.439 C 116.457 249.813,117.126 250.008,117.586 249.888 C 118.033 249.771,118.496 249.831,118.613 250.022 C 118.731 250.212,119.406 250.023,120.114 249.600 C 120.821 249.177,123.270 247.913,125.556 246.791 C 132.257 243.499,136.731 240.123,140.323 235.648 C 141.050 234.742,141.896 234.000,142.203 234.000 C 142.509 234.000,142.914 233.726,143.101 233.391 C 143.512 232.657,146.482 232.445,146.711 233.132 C 146.797 233.390,147.094 233.600,147.371 233.600 C 147.649 233.600,148.209 233.968,148.617 234.419 C 150.701 236.722,151.950 236.765,158.600 234.764 C 160.140 234.301,162.120 233.831,163.000 233.720 C 163.880 233.609,164.771 233.356,164.980 233.159 C 165.189 232.962,166.213 232.800,167.256 232.800 C 168.299 232.800,169.247 232.647,169.363 232.460 C 169.478 232.273,171.064 232.002,172.886 231.857 C 178.981 231.373,181.318 230.167,188.112 224.000 C 190.226 222.081,192.308 220.770,196.255 218.872 C 201.166 216.510,204.283 213.927,206.439 210.435 C 207.803 208.223,210.206 206.334,218.629 200.850 C 227.934 194.792,228.967 193.004,231.608 178.400 C 232.775 171.944,234.115 168.190,236.908 163.552 C 239.381 159.443,239.774 158.154,240.363 152.200 C 241.564 140.070,251.599 130.000,262.485 130.000 C 264.915 130.000,268.909 129.118,269.814 128.382 C 272.641 126.082,280.609 125.953,284.526 128.144 C 289.295 130.811,292.315 129.930,294.423 125.256 C 294.855 124.297,296.173 122.407,297.352 121.056 C 303.820 113.643,303.687 104.086,297.200 110.166 C 291.147 115.840,284.270 114.054,279.862 105.664 C 278.358 102.804,277.679 96.493,278.800 95.800 C 279.839 95.158,279.254 89.033,278.016 87.585 C 277.365 86.823,276.825 86.058,276.816 85.884 C 276.757 84.722,272.289 79.776,270.600 79.001 C 267.614 77.632,264.325 77.301,261.000 78.033 M286.671 97.707 C 285.042 99.243,284.928 99.775,285.785 101.827 C 287.538 106.021,293.184 106.076,293.860 101.905 C 294.564 97.569,289.779 94.775,286.671 97.707 M160.140 103.571 C 154.189 107.200,154.666 115.286,161.065 119.240 C 164.888 121.603,171.657 116.587,171.573 111.454 L 171.546 109.800 171.054 111.624 C 168.976 119.332,161.935 120.943,157.672 114.688 C 154.988 110.751,157.187 104.555,161.735 103.238 C 162.554 103.001,162.718 102.860,162.200 102.838 C 161.760 102.819,160.833 103.149,160.140 103.571 M346.985 132.100 L 345.000 134.200 347.100 132.215 C 349.051 130.371,349.383 130.000,349.085 130.000 C 349.022 130.000,348.077 130.945,346.985 132.100 M263.594 135.352 C 258.876 137.856,260.161 145.174,265.322 145.194 C 269.359 145.210,271.200 143.285,271.200 139.049 C 271.200 134.643,267.927 133.052,263.594 135.352 M338.195 141.107 C 335.112 144.128,331.062 148.047,329.195 149.817 C 324.160 154.587,306.249 172.916,303.023 176.600 C 301.481 178.360,296.796 183.326,292.610 187.636 C 288.425 191.947,283.695 196.926,282.100 198.703 C 279.974 201.072,278.747 202.094,277.500 202.535 C 276.340 202.946,276.083 203.147,276.692 203.168 C 278.799 203.243,280.808 201.927,283.286 198.851 C 284.637 197.173,289.790 191.660,294.738 186.600 C 307.029 174.031,333.194 147.056,341.588 138.300 C 345.829 133.877,344.187 135.235,338.195 141.107 M250.200 144.457 C 246.406 146.601,246.691 150.821,250.707 151.973 C 253.451 152.760,256.499 149.618,255.461 147.073 C 254.586 144.929,251.809 143.548,250.200 144.457 M103.903 146.826 C 102.864 147.374,102.089 148.240,101.374 149.652 L 100.342 151.687 101.271 152.682 C 102.328 153.814,105.814 153.869,106.858 152.771 C 108.732 150.797,108.676 149.216,106.648 146.900 C 105.710 145.828,105.789 145.830,103.903 146.826 M258.560 164.571 C 256.121 165.633,256.027 168.907,258.389 170.523 C 261.239 172.474,264.606 169.505,263.020 166.440 C 261.929 164.329,260.495 163.729,258.560 164.571 M326.167 181.188 C 324.557 181.839,322.026 185.229,321.111 187.959 L 320.226 190.600 320.013 239.200 C 319.774 293.825,320.045 289.325,316.858 291.472 C 314.795 292.863,313.297 292.898,274.364 292.468 C 254.034 292.244,231.820 292.182,225.000 292.330 L 212.600 292.600 235.600 292.895 C 248.250 293.057,270.608 293.386,285.285 293.627 C 313.661 294.091,315.029 294.034,317.675 292.271 C 320.945 290.095,320.909 290.714,321.372 228.400 C 321.632 193.325,321.809 189.127,323.136 186.526 C 324.656 183.545,326.906 182.376,327.602 184.205 C 328.185 185.739,329.229 291.236,328.688 294.000 C 328.449 295.218,328.478 295.296,328.907 294.600 C 329.412 293.781,329.429 184.837,328.925 183.000 C 328.691 182.146,327.633 180.783,327.238 180.825 C 327.107 180.839,326.625 181.002,326.167 181.188 M217.474 186.870 C 218.701 188.023,218.678 189.758,217.418 191.018 C 214.723 193.713,210.814 190.042,213.023 186.889 C 213.867 185.684,216.201 185.674,217.474 186.870 M272.975 192.500 L 271.800 193.800 273.100 192.625 C 273.815 191.979,274.400 191.394,274.400 191.325 C 274.400 191.016,274.070 191.288,272.975 192.500 M85.542 201.737 C 87.979 203.671,86.108 208.411,82.914 208.394 C 78.292 208.370,77.686 202.060,82.217 201.130 C 83.266 200.914,84.875 201.208,85.542 201.737 M259.076 206.900 C 257.830 208.133,257.825 208.149,258.981 207.203 C 259.652 206.655,260.371 206.070,260.580 205.903 C 260.789 205.736,260.831 205.600,260.674 205.600 C 260.517 205.600,259.798 206.185,259.076 206.900 M254.164 211.300 C 248.481 217.187,244.798 221.617,244.802 222.560 C 244.803 222.802,245.213 222.325,245.713 221.499 C 246.213 220.673,248.787 217.703,251.434 214.899 C 255.844 210.226,257.078 208.800,256.712 208.800 C 256.638 208.800,255.491 209.925,254.164 211.300 M91.197 210.998 C 94.378 213.876,91.668 219.380,87.463 218.583 C 81.940 217.535,82.705 209.735,88.294 210.120 C 89.596 210.210,90.694 210.542,91.197 210.998 M274.598 214.726 C 277.411 218.977,276.661 220.499,267.375 229.376 C 257.888 238.445,257.601 238.548,253.085 234.507 L 250.600 232.283 253.036 234.718 C 257.375 239.056,257.729 238.945,266.906 230.353 C 275.724 222.098,276.709 220.798,276.413 217.800 C 276.322 216.878,274.599 213.770,273.959 213.375 C 273.722 213.228,274.010 213.836,274.598 214.726 M171.689 251.823 C 171.110 252.229,170.819 252.821,170.854 253.523 C 170.898 254.378,170.943 254.426,171.075 253.757 C 171.278 252.725,172.883 251.802,173.873 252.148 C 174.522 252.375,174.516 252.337,173.824 251.801 C 172.861 251.056,172.783 251.057,171.689 251.823 M79.500 253.632 C 77.399 254.856,77.149 257.520,78.951 259.486 C 82.229 263.063,86.811 259.572,84.756 255.063 C 84.009 253.423,81.181 252.653,79.500 253.632 M206.900 292.694 C 207.945 292.776,209.655 292.776,210.700 292.694 C 211.745 292.612,210.890 292.544,208.800 292.544 C 206.710 292.544,205.855 292.612,206.900 292.694 M326.744 297.223 C 325.850 298.002,325.846 298.023,326.678 297.620 C 327.160 297.387,327.666 297.017,327.801 296.798 C 328.195 296.162,327.763 296.335,326.744 297.223 M258.200 298.837 C 232.310 299.420,235.974 299.501,279.708 299.311 C 303.198 299.210,322.908 298.991,323.508 298.826 C 324.995 298.416,276.525 298.425,258.200 298.837 " stroke="none" fill="#1e2d82" fill-rule="evenodd"></path><path id="path6" d="M212.761 53.372 C 212.653 53.481,177.922 53.673,135.582 53.800 C 93.242 53.927,57.882 54.123,57.003 54.235 C 53.343 54.705,50.631 57.063,49.639 60.637 C 49.018 62.873,49.021 293.333,49.642 295.799 C 50.288 298.367,52.365 300.577,55.110 301.619 L 57.400 302.489 173.000 302.237 C 308.750 301.941,322.560 301.823,325.400 300.929 C 328.158 300.061,329.941 298.619,330.948 296.443 L 331.800 294.600 331.911 239.200 C 331.981 204.307,331.877 182.854,331.629 181.245 C 330.763 175.619,327.340 175.222,322.877 180.229 C 318.233 185.440,317.208 189.656,316.952 204.600 C 316.830 211.705,316.566 216.179,316.120 218.721 C 315.549 221.971,315.536 222.755,316.014 224.921 C 316.861 228.758,317.076 284.566,316.251 286.541 C 314.896 289.783,319.986 289.497,267.600 289.272 C 243.852 289.170,235.891 289.270,228.400 289.766 C 217.852 290.463,192.227 290.602,185.800 289.996 C 183.600 289.789,179.820 289.433,177.400 289.207 C 174.641 288.948,153.262 288.794,120.072 288.793 C 73.891 288.791,66.996 288.715,65.987 288.193 C 63.902 287.115,63.819 286.109,64.422 269.110 C 64.720 260.689,64.958 249.345,64.950 243.900 C 64.911 216.247,64.921 217.446,64.399 179.000 C 64.204 164.700,64.035 134.508,64.023 111.906 L 64.000 70.813 65.167 69.506 L 66.335 68.200 112.667 68.200 C 161.310 68.200,160.320 68.167,164.600 69.928 C 167.037 70.930,167.321 71.347,166.253 72.350 C 165.755 72.818,165.225 73.200,165.075 73.200 C 163.638 73.200,160.608 77.915,159.418 82.000 C 159.066 83.210,158.620 84.740,158.427 85.400 C 158.234 86.060,157.953 87.315,157.803 88.188 C 157.362 90.758,156.382 93.333,155.466 94.326 C 154.579 95.288,154.060 95.554,149.400 97.445 C 145.909 98.861,142.537 100.834,140.310 102.762 C 139.369 103.577,137.520 105.068,136.200 106.077 C 134.880 107.086,133.350 108.406,132.800 109.010 C 129.988 112.100,126.408 113.552,119.000 114.608 C 116.360 114.984,113.840 115.440,113.400 115.620 C 112.960 115.800,111.917 116.178,111.082 116.461 C 106.854 117.890,100.804 126.631,98.803 134.200 C 98.337 135.960,97.794 137.760,97.595 138.200 C 97.396 138.640,96.573 140.800,95.765 143.000 C 92.832 150.992,92.111 151.840,86.400 154.013 C 82.274 155.582,79.496 158.251,77.461 162.600 C 74.536 168.849,74.641 168.313,74.598 177.200 C 74.576 181.710,74.412 185.940,74.235 186.600 C 73.775 188.310,72.975 190.657,71.984 193.200 C 70.194 197.796,68.800 202.986,68.800 205.056 C 68.800 206.226,68.427 209.477,67.971 212.282 C 66.990 218.320,67.157 220.736,68.877 225.400 C 71.477 232.446,71.582 233.987,69.790 238.800 C 65.374 250.665,66.726 255.645,79.565 274.797 C 83.662 280.909,94.263 281.809,101.178 276.632 C 102.335 275.765,102.980 275.600,105.206 275.600 C 109.253 275.600,111.256 274.738,113.714 271.941 C 116.294 269.004,117.683 268.163,120.890 267.593 C 122.270 267.348,124.570 266.641,126.000 266.021 C 127.430 265.400,129.410 264.586,130.400 264.210 C 134.012 262.838,136.585 261.505,138.776 259.871 C 142.167 257.341,145.894 255.200,146.907 255.200 C 147.770 255.200,149.593 256.164,149.597 256.622 C 149.601 257.193,151.892 259.244,153.547 260.157 C 155.449 261.207,159.173 260.792,162.216 259.191 C 164.565 257.956,165.600 257.714,165.600 258.400 C 165.600 258.620,166.005 258.806,166.500 258.814 C 166.995 258.821,168.120 259.175,169.000 259.600 C 174.558 262.285,179.739 258.693,180.542 251.600 C 180.769 249.592,181.222 248.400,181.758 248.400 C 182.014 248.400,182.474 248.053,182.780 247.628 C 183.141 247.127,184.048 246.761,185.368 246.583 C 186.486 246.433,187.625 246.129,187.900 245.906 C 188.243 245.629,188.592 245.662,189.014 246.011 C 189.512 246.425,189.832 246.418,190.714 245.978 C 192.988 244.840,193.200 244.459,193.200 241.498 C 193.200 239.757,193.444 238.207,193.853 237.344 C 194.624 235.721,199.424 230.800,200.237 230.800 C 200.547 230.800,200.800 230.554,200.800 230.253 C 200.800 229.540,204.340 226.000,205.053 226.000 C 205.354 226.000,205.600 225.864,205.600 225.698 C 205.600 225.211,207.641 224.474,209.800 224.182 C 212.307 223.843,216.620 222.495,218.200 221.556 C 219.584 220.734,222.379 219.335,225.758 217.774 C 227.054 217.175,228.417 216.396,228.787 216.042 C 230.453 214.448,232.262 212.966,232.998 212.593 C 233.439 212.369,233.978 211.784,234.195 211.293 C 234.412 210.802,234.782 210.400,235.016 210.400 C 235.503 210.400,238.000 207.927,238.000 207.445 C 238.000 207.270,238.608 206.417,239.351 205.548 C 240.166 204.596,240.803 203.341,240.956 202.385 C 241.095 201.513,241.387 200.800,241.605 200.800 C 241.822 200.800,242.000 199.690,242.000 198.328 C 242.000 195.911,242.354 194.326,243.483 191.694 C 244.182 190.064,247.736 186.584,249.600 185.706 C 250.370 185.343,251.540 184.658,252.200 184.182 C 252.860 183.707,253.718 183.206,254.106 183.069 C 254.494 182.933,254.970 182.411,255.164 181.910 C 255.829 180.188,258.493 178.400,260.395 178.400 C 261.058 178.400,261.600 178.220,261.600 178.000 C 261.600 177.780,262.032 177.600,262.560 177.600 C 263.648 177.600,267.128 174.056,268.405 171.647 C 269.948 168.739,270.511 168.293,272.586 168.334 C 277.510 168.433,279.947 165.854,280.034 160.454 C 280.123 154.867,281.777 152.916,286.747 152.532 C 292.222 152.110,294.633 149.987,295.236 145.059 C 295.521 142.727,297.344 140.000,298.618 140.000 C 299.420 140.000,307.859 130.542,311.020 126.100 C 312.740 123.682,314.224 122.843,314.558 124.100 C 317.051 133.465,321.060 134.739,327.848 128.320 C 332.439 123.978,332.382 124.450,332.392 90.173 C 332.401 59.061,332.450 59.650,329.594 56.794 C 326.697 53.897,330.142 54.063,269.000 53.870 C 238.860 53.774,213.921 53.579,213.579 53.435 C 213.238 53.292,212.870 53.264,212.761 53.372 M272.600 55.405 C 323.622 55.636,323.671 55.637,326.038 56.696 C 330.914 58.877,330.859 58.245,330.183 104.200 C 329.894 123.823,329.510 125.393,324.352 128.025 C 319.206 130.650,318.948 129.356,318.392 98.200 C 317.882 69.652,317.901 69.950,316.456 68.332 C 314.665 66.328,316.118 66.368,236.400 66.105 C 53.575 65.500,64.179 65.326,62.418 68.963 C 61.600 70.652,61.600 70.693,61.600 178.442 L 61.600 286.230 62.500 288.015 C 64.193 291.373,59.858 291.100,116.000 291.383 C 143.390 291.521,171.470 291.821,178.400 292.050 C 191.514 292.483,232.605 292.568,233.260 292.163 C 233.467 292.035,251.125 292.143,272.500 292.401 C 313.382 292.896,314.790 292.866,316.858 291.472 C 320.045 289.325,319.774 293.825,320.013 239.200 L 320.226 190.600 321.111 187.959 C 322.529 183.726,326.329 179.979,327.890 181.275 C 329.061 182.247,329.106 184.118,329.252 238.600 L 329.400 293.800 328.475 295.534 C 326.369 299.480,332.496 299.146,253.200 299.630 C 216.130 299.856,173.290 300.201,158.000 300.396 C 110.302 301.004,58.513 300.909,56.156 300.209 C 53.919 299.545,52.340 298.112,51.421 295.913 C 50.651 294.069,50.458 63.848,51.224 61.089 C 51.455 60.258,52.176 58.972,52.827 58.230 C 55.242 55.479,51.255 55.667,112.634 55.409 C 143.172 55.281,168.257 55.068,168.379 54.938 C 168.501 54.807,182.190 54.814,198.800 54.954 C 215.410 55.094,248.620 55.297,272.600 55.405 M224.933 69.655 C 230.995 70.873,225.017 72.979,215.809 72.870 C 210.380 72.806,205.612 71.805,208.200 71.272 C 208.640 71.182,209.090 70.973,209.200 70.808 C 209.975 69.648,220.910 68.847,224.933 69.655 M111.782 75.382 C 110.513 76.650,110.470 78.523,111.689 79.377 C 113.046 80.328,115.424 80.187,116.177 79.111 C 118.345 76.016,114.451 72.713,111.782 75.382 M267.800 78.028 C 270.447 78.728,271.719 79.465,273.410 81.276 C 275.127 83.115,276.790 85.364,276.816 85.884 C 276.825 86.058,277.365 86.823,278.016 87.585 C 279.254 89.033,279.839 95.158,278.800 95.800 C 277.679 96.493,278.358 102.804,279.862 105.664 C 284.270 114.054,291.147 115.840,297.200 110.166 C 303.687 104.086,303.820 113.643,297.352 121.056 C 296.173 122.407,294.855 124.297,294.423 125.256 C 292.315 129.930,289.295 130.811,284.526 128.144 C 280.609 125.953,272.641 126.082,269.814 128.382 C 268.909 129.118,264.915 130.000,262.485 130.000 C 251.599 130.000,241.564 140.070,240.363 152.200 C 239.774 158.154,239.381 159.443,236.908 163.552 C 234.115 168.190,232.775 171.944,231.608 178.400 C 228.967 193.004,227.934 194.792,218.629 200.850 C 210.206 206.334,207.803 208.223,206.439 210.435 C 204.283 213.927,201.166 216.510,196.255 218.872 C 192.308 220.770,190.226 222.081,188.112 224.000 C 181.318 230.167,178.981 231.373,172.886 231.857 C 171.064 232.002,169.478 232.273,169.363 232.460 C 169.247 232.647,168.299 232.800,167.256 232.800 C 166.213 232.800,165.189 232.962,164.980 233.159 C 164.771 233.356,163.880 233.609,163.000 233.720 C 162.120 233.831,160.140 234.301,158.600 234.764 C 151.950 236.765,150.701 236.722,148.617 234.419 C 148.209 233.968,147.649 233.600,147.371 233.600 C 147.094 233.600,146.797 233.390,146.711 233.132 C 146.482 232.445,143.512 232.657,143.101 233.391 C 142.914 233.726,142.509 234.000,142.203 234.000 C 141.896 234.000,141.050 234.742,140.323 235.648 C 136.731 240.123,132.257 243.499,125.556 246.791 C 123.270 247.913,120.821 249.177,120.114 249.600 C 119.406 250.023,118.731 250.212,118.613 250.022 C 118.496 249.831,118.033 249.771,117.586 249.888 C 117.126 250.008,116.457 249.813,116.043 249.439 C 115.547 248.990,114.297 248.710,112.156 248.570 C 110.420 248.456,108.760 248.281,108.467 248.181 C 108.175 248.082,106.257 248.198,104.205 248.440 C 99.371 249.010,98.258 248.593,98.079 246.140 C 98.005 245.129,97.655 244.212,97.179 243.781 C 96.751 243.393,96.400 242.891,96.400 242.664 C 96.400 242.108,94.768 240.401,94.230 240.395 C 93.619 240.387,91.599 236.015,91.599 234.700 C 91.600 234.095,91.420 233.600,91.200 233.600 C 90.980 233.600,90.800 233.341,90.800 233.024 C 90.800 232.070,90.127 231.914,85.394 231.778 C 80.471 231.636,79.458 231.211,78.179 228.752 C 77.879 228.176,76.795 226.736,75.770 225.552 C 71.834 221.005,71.189 217.634,72.978 210.956 C 75.109 203.002,77.841 198.845,82.569 196.361 C 83.906 195.658,86.170 194.227,87.600 193.180 C 89.030 192.133,92.180 190.241,94.600 188.976 C 102.983 184.592,104.915 181.953,103.949 176.203 C 103.216 171.842,104.336 168.818,108.073 165.069 C 108.693 164.447,109.201 163.727,109.202 163.469 C 109.204 163.211,109.499 162.460,109.859 161.800 C 112.133 157.630,112.397 156.915,112.398 154.924 C 112.399 153.782,112.580 152.736,112.800 152.600 C 113.943 151.893,113.251 143.804,111.931 142.454 C 108.499 138.943,108.636 135.418,112.360 131.475 C 115.348 128.310,117.896 127.326,120.235 128.433 C 121.096 128.840,121.981 129.179,122.201 129.186 C 122.422 129.194,123.093 129.720,123.693 130.355 C 125.594 132.369,128.457 131.999,137.400 128.582 C 142.821 126.510,148.890 125.743,152.038 126.731 C 155.323 127.762,168.931 128.429,169.760 127.600 C 169.980 127.380,170.486 127.200,170.884 127.200 C 171.799 127.200,174.911 125.754,177.000 124.358 C 177.880 123.770,180.015 122.788,181.745 122.177 C 187.288 120.216,199.565 107.967,205.600 98.375 C 206.590 96.802,207.805 95.358,208.300 95.167 C 209.188 94.824,209.542 93.458,208.853 93.033 C 208.135 92.589,207.948 88.861,208.583 87.634 C 210.317 84.280,213.988 86.461,213.998 90.851 C 214.002 93.071,216.408 93.410,225.400 92.459 C 230.079 91.964,230.989 91.693,236.000 89.301 C 238.310 88.198,240.838 87.013,241.617 86.668 C 242.397 86.323,244.466 85.107,246.215 83.965 C 251.839 80.293,253.182 79.754,261.000 78.033 C 263.259 77.535,265.931 77.533,267.800 78.028 M131.618 81.520 C 129.165 83.973,130.426 87.811,133.836 88.269 C 136.965 88.688,139.199 86.452,138.638 83.462 C 138.072 80.445,133.859 79.279,131.618 81.520 M191.233 84.400 C 191.435 84.400,191.600 85.144,191.600 86.053 C 191.600 87.687,188.512 91.600,187.223 91.600 C 186.990 91.600,186.800 91.973,186.800 92.429 C 186.800 93.391,186.301 93.951,184.500 95.009 C 183.785 95.429,183.200 95.914,183.200 96.086 C 183.200 96.259,182.786 96.400,182.280 96.400 C 181.774 96.400,181.144 96.616,180.880 96.880 C 180.507 97.253,180.400 97.031,180.400 95.880 C 180.400 94.474,180.466 94.400,181.712 94.400 C 182.565 94.400,183.225 94.120,183.600 93.600 C 183.917 93.160,184.407 92.800,184.688 92.800 C 184.970 92.800,185.200 92.596,185.200 92.347 C 185.200 92.098,185.519 91.603,185.908 91.247 C 186.297 90.891,186.844 89.700,187.124 88.600 C 187.404 87.500,187.895 86.400,188.216 86.156 C 188.537 85.912,188.800 85.432,188.800 85.089 C 188.800 84.388,189.532 83.979,190.333 84.232 C 190.626 84.324,191.031 84.400,191.233 84.400 M86.200 87.064 C 79.966 90.344,78.933 96.970,83.983 101.293 C 91.778 107.965,102.089 97.320,95.137 89.778 C 92.312 86.713,88.859 85.664,86.200 87.064 M91.991 90.326 C 95.587 92.989,95.611 97.507,92.041 99.892 C 88.539 102.231,83.600 99.522,83.600 95.262 C 83.600 90.638,88.510 87.750,91.991 90.326 M292.188 97.429 C 294.102 98.683,294.562 102.708,292.928 103.902 C 290.165 105.922,287.128 105.039,285.785 101.827 C 284.153 97.919,288.441 94.974,292.188 97.429 M106.483 101.392 C 104.270 103.254,103.762 107.016,105.591 107.995 C 107.715 109.132,111.260 108.186,112.054 106.270 C 113.708 102.275,109.653 98.724,106.483 101.392 M166.240 103.952 C 171.829 108.078,172.847 111.242,169.972 115.547 C 165.642 122.031,159.088 121.019,156.185 113.417 C 153.834 107.261,161.257 100.273,166.240 103.952 M358.194 110.444 C 355.802 111.711,351.085 115.197,346.600 119.011 C 344.400 120.882,340.717 123.985,338.416 125.907 C 323.376 138.464,271.500 189.651,268.964 194.436 C 266.473 199.137,269.228 204.621,274.663 205.778 C 275.357 205.926,276.977 206.685,278.263 207.464 C 284.021 210.954,285.426 210.394,292.798 201.671 C 300.849 192.145,305.361 186.929,308.723 183.260 C 310.669 181.137,314.577 176.520,317.407 173.000 C 320.237 169.480,323.924 164.980,325.600 163.000 C 327.276 161.020,331.868 155.350,335.803 150.400 C 347.528 135.652,347.937 135.153,351.556 131.200 C 358.588 123.521,362.947 118.076,364.167 115.447 C 366.188 111.092,362.618 108.101,358.194 110.444 M361.187 113.385 C 362.314 114.742,358.626 120.380,352.541 126.603 C 351.033 128.145,347.381 132.015,344.425 135.203 C 341.468 138.391,335.528 144.630,331.225 149.067 C 308.761 172.225,302.981 178.171,294.738 186.600 C 289.790 191.660,284.631 197.180,283.273 198.866 C 280.236 202.637,278.350 203.585,275.374 202.835 C 271.040 201.744,269.259 198.566,271.045 195.113 C 273.250 190.849,322.812 141.754,337.600 129.186 C 340.130 127.035,343.841 123.864,345.847 122.138 C 354.580 114.624,359.761 111.667,361.187 113.385 M75.569 114.369 C 73.373 116.565,74.690 119.760,77.791 119.760 C 81.302 119.760,82.335 115.421,79.208 113.804 C 77.544 112.944,76.894 113.044,75.569 114.369 M81.554 133.199 C 78.867 134.619,77.951 138.611,79.708 141.241 C 82.735 145.772,89.711 144.462,90.601 139.197 C 91.456 134.131,86.282 130.701,81.554 133.199 M270.078 135.475 C 272.408 137.707,271.542 143.060,268.639 144.382 C 264.018 146.487,260.911 144.662,260.836 139.800 C 260.770 135.474,267.023 132.548,270.078 135.475 M86.711 135.823 C 87.873 136.637,87.921 138.879,86.800 140.000 C 84.994 141.806,82.000 140.448,82.000 137.823 C 82.000 136.254,83.125 135.200,84.800 135.200 C 85.362 135.200,86.222 135.480,86.711 135.823 M253.983 145.149 C 256.444 146.932,256.080 150.261,253.271 151.664 C 249.559 153.517,245.489 148.451,248.500 145.724 C 250.572 143.848,251.984 143.700,253.983 145.149 M106.648 146.900 C 108.676 149.216,108.732 150.797,106.858 152.771 C 105.814 153.869,102.328 153.814,101.271 152.682 L 100.342 151.687 101.374 149.652 C 102.089 148.240,102.864 147.374,103.903 146.826 C 105.789 145.830,105.710 145.828,106.648 146.900 M261.435 164.659 C 264.402 166.604,263.712 171.200,260.453 171.200 C 256.719 171.200,255.238 166.017,258.560 164.571 C 260.159 163.875,260.241 163.878,261.435 164.659 M260.101 203.589 C 257.306 204.858,244.173 218.531,242.959 221.436 C 241.418 225.124,242.170 226.581,249.341 233.788 C 257.646 242.137,257.321 242.154,267.158 232.855 C 276.438 224.084,277.064 223.435,278.001 221.598 C 279.386 218.884,278.856 216.086,276.359 212.938 C 275.514 211.872,273.939 209.735,272.859 208.188 C 269.459 203.321,264.572 201.559,260.101 203.589 M265.321 205.378 C 267.960 206.319,269.845 207.947,272.822 211.856 C 278.495 219.305,278.414 219.558,266.906 230.345 C 257.098 239.539,257.720 239.482,250.136 231.871 C 242.687 224.396,242.683 223.949,249.976 215.778 C 258.346 206.401,261.740 204.100,265.321 205.378 M296.926 229.580 C 292.141 232.497,295.673 240.158,300.993 238.402 C 305.071 237.057,305.687 231.307,301.960 229.380 C 300.412 228.579,298.439 228.657,296.926 229.580 M300.328 233.696 C 300.175 234.769,299.004 235.109,298.649 234.184 C 298.311 233.304,298.676 232.800,299.651 232.800 C 300.256 232.800,300.424 233.023,300.328 233.696 M288.927 247.579 C 284.554 250.246,281.452 256.607,283.034 259.666 C 286.999 267.333,293.388 268.761,298.590 263.141 C 303.810 257.504,303.209 254.249,295.864 248.354 C 293.577 246.518,291.118 246.243,288.927 247.579 M267.798 250.166 C 265.451 252.513,266.406 256.284,269.548 257.073 C 271.967 257.680,274.654 255.008,274.246 252.400 C 273.779 249.414,269.896 248.068,267.798 250.166 M294.411 249.860 C 298.918 252.866,300.774 256.864,298.940 259.611 C 294.910 265.645,290.664 265.965,286.367 260.558 C 282.384 255.547,289.250 246.417,294.411 249.860 M174.000 252.000 C 175.379 253.379,174.639 255.600,172.800 255.600 C 170.906 255.600,170.118 252.923,171.689 251.823 C 172.833 251.021,173.037 251.037,174.000 252.000 M83.337 253.644 C 85.403 254.586,85.913 258.391,84.189 260.010 C 82.594 261.509,80.624 261.311,78.951 259.486 C 75.884 256.140,79.180 251.750,83.337 253.644 M180.899 264.282 C 179.790 264.496,179.110 265.685,179.275 267.120 C 179.550 269.500,183.600 268.277,183.600 265.814 C 183.600 265.009,182.469 263.820,181.926 264.054 C 181.857 264.084,181.395 264.187,180.899 264.282 M139.933 268.300 C 138.534 269.815,138.310 270.666,138.973 271.947 C 140.689 275.266,145.200 273.923,145.200 270.093 C 145.200 267.158,141.996 266.068,139.933 268.300 M157.147 269.404 C 153.738 271.256,154.811 277.516,158.661 278.238 C 164.035 279.246,166.888 271.816,162.110 269.259 C 160.944 268.635,158.428 268.708,157.147 269.404 M266.867 276.238 C 265.372 277.285,265.788 279.360,267.526 279.527 C 269.821 279.748,270.895 277.734,269.269 276.262 C 268.359 275.439,268.013 275.435,266.867 276.238 " stroke="none" fill="#162365" fill-rule="evenodd"></path><path id="path7" d="M216.849 125.271 C 215.886 125.713,213.891 126.936,212.415 127.990 C 210.939 129.043,209.341 130.028,208.865 130.179 C 207.783 130.523,207.607 135.038,208.602 136.946 C 208.931 137.576,209.200 138.351,209.200 138.669 C 209.200 138.987,209.380 139.136,209.600 139.000 C 209.820 138.864,210.000 139.113,210.000 139.553 C 210.000 139.993,210.158 140.450,210.351 140.570 C 210.824 140.862,210.367 142.728,209.462 144.200 C 208.247 146.177,203.736 148.804,198.929 150.334 C 197.548 150.773,194.307 153.573,193.255 155.235 C 192.895 155.805,191.700 157.308,190.600 158.576 C 189.500 159.844,188.420 161.201,188.200 161.591 C 187.533 162.775,185.475 164.262,184.148 164.518 C 183.460 164.652,181.301 165.530,179.350 166.470 L 175.804 168.179 169.802 168.403 C 161.083 168.730,159.358 170.019,155.820 178.857 C 153.439 184.802,153.886 186.788,157.786 187.597 C 159.001 187.849,160.341 187.946,160.765 187.811 C 161.189 187.676,161.955 187.488,162.468 187.392 C 163.685 187.163,165.200 186.354,165.200 185.932 C 165.200 185.750,165.470 185.600,165.800 185.600 C 166.130 185.600,166.400 185.420,166.400 185.200 C 166.400 184.980,166.625 184.796,166.900 184.791 C 167.175 184.786,167.850 184.430,168.400 184.000 C 168.950 183.570,169.715 183.214,170.100 183.209 C 170.485 183.204,170.800 183.017,170.800 182.792 C 170.800 182.551,171.233 182.493,171.860 182.651 C 172.569 182.829,172.832 182.775,172.654 182.487 C 172.239 181.816,173.856 181.503,174.775 182.077 C 175.681 182.643,175.807 183.025,175.210 183.394 C 174.995 183.527,174.881 184.163,174.956 184.808 C 175.031 185.453,174.962 185.900,174.802 185.801 C 174.642 185.703,174.195 186.324,173.808 187.182 C 173.367 188.159,172.671 188.922,171.944 189.223 C 168.727 190.556,171.014 190.060,174.981 188.566 C 185.950 184.432,188.290 181.837,188.842 173.200 C 189.599 161.350,193.836 154.677,204.200 149.012 C 210.804 145.402,212.126 143.969,214.818 137.502 C 216.516 133.422,218.673 129.165,220.069 127.138 C 221.863 124.532,220.359 123.660,216.849 125.271 M186.439 171.376 C 186.643 171.250,186.920 171.699,187.055 172.373 C 187.190 173.048,187.452 173.600,187.638 173.600 C 188.319 173.600,187.863 176.646,186.949 178.200 C 186.431 179.080,186.006 179.637,186.004 179.438 C 186.002 179.239,185.629 179.412,185.176 179.822 C 184.492 180.441,184.292 180.473,184.006 180.010 C 183.716 179.541,183.557 179.538,183.014 179.989 C 182.482 180.430,182.280 180.433,181.883 180.004 C 181.530 179.623,181.527 179.554,181.872 179.748 C 182.132 179.894,182.475 179.802,182.634 179.545 C 182.793 179.287,182.752 179.182,182.543 179.312 C 181.771 179.789,180.927 178.841,181.635 178.292 C 181.984 178.022,182.194 177.575,182.102 177.300 C 182.009 177.025,182.089 176.800,182.279 176.800 C 182.470 176.800,182.664 176.340,182.710 175.779 C 182.853 174.046,185.570 170.213,185.934 171.230 C 186.008 171.436,186.235 171.502,186.439 171.376 " stroke="none" fill="#eeceae" fill-rule="evenodd"></path><path id="path8" d="M73.800 55.600 C 58.173 55.778,56.060 55.877,54.948 56.486 C 53.248 57.416,51.717 59.316,51.218 61.112 C 50.457 63.850,50.657 294.083,51.421 295.913 C 52.372 298.189,53.929 299.557,56.389 300.275 C 60.184 301.385,195.395 300.423,262.400 298.811 C 271.090 298.602,286.498 298.424,296.640 298.415 C 315.412 298.400,317.197 298.272,318.243 296.864 C 318.629 296.344,318.738 296.360,319.088 296.985 C 319.357 297.467,319.581 297.554,319.768 297.251 C 319.922 297.003,319.881 296.800,319.679 296.800 C 319.476 296.800,319.359 296.350,319.420 295.800 C 319.480 295.250,319.355 294.800,319.141 294.800 C 318.928 294.800,318.881 294.593,319.037 294.339 C 319.238 294.015,319.465 294.074,319.805 294.539 C 320.071 294.903,320.425 295.200,320.593 295.200 C 320.761 295.200,320.674 294.930,320.400 294.600 C 320.018 294.140,320.011 293.868,320.370 293.436 C 321.130 292.520,320.080 292.206,319.117 293.061 C 318.298 293.787,318.291 293.785,318.728 292.953 C 318.972 292.487,319.075 292.008,318.956 291.889 C 318.837 291.770,319.113 291.554,319.570 291.410 C 320.026 291.265,320.400 290.978,320.400 290.773 C 320.400 290.142,319.762 290.357,318.962 291.258 C 316.474 294.059,315.494 294.126,284.400 293.614 C 269.550 293.370,242.100 293.000,223.400 292.792 C 204.700 292.583,184.270 292.241,178.000 292.030 C 171.730 291.820,144.010 291.532,116.400 291.390 C 59.809 291.100,64.194 291.374,62.500 288.015 L 61.600 286.230 61.600 178.442 C 61.600 56.374,61.269 68.252,64.718 66.537 C 67.114 65.345,314.694 65.475,316.329 66.669 C 318.616 68.340,318.825 69.404,319.199 81.289 C 320.623 126.458,320.654 126.800,323.282 126.800 C 327.005 126.800,329.170 122.261,329.196 114.400 C 329.204 111.870,329.474 103.500,329.795 95.800 C 331.319 59.253,331.020 57.375,323.458 55.977 C 321.201 55.560,105.938 55.235,73.800 55.600 M316.600 59.214 C 328.217 59.106,327.802 57.506,326.806 98.600 C 326.296 119.628,326.108 121.600,324.612 121.600 C 323.191 121.600,322.628 113.116,322.186 85.000 C 321.927 68.511,321.777 67.414,319.449 64.992 C 316.457 61.877,327.854 62.125,189.400 62.165 L 65.400 62.200 63.110 63.325 C 60.554 64.579,59.370 65.974,58.552 68.693 C 57.662 71.651,57.735 285.361,58.627 288.365 C 59.413 291.014,61.608 293.454,64.616 295.023 L 66.872 296.200 65.336 296.669 C 62.904 297.412,57.738 297.327,56.373 296.521 C 53.816 295.010,53.998 304.189,54.023 178.092 C 54.047 53.376,53.886 61.386,56.400 59.675 L 57.800 58.722 184.200 58.996 C 253.720 59.146,313.300 59.244,316.600 59.214 M229.503 99.663 C 229.841 100.001,230.321 100.012,231.283 99.704 L 232.600 99.282 230.820 99.241 C 229.472 99.210,229.152 99.312,229.503 99.663 M86.976 100.213 C 87.404 100.536,87.933 100.800,88.153 100.800 C 88.373 100.800,88.204 100.536,87.776 100.213 C 87.349 99.890,86.820 99.625,86.600 99.625 C 86.380 99.625,86.549 99.890,86.976 100.213 M161.735 103.238 C 158.918 104.054,155.611 109.267,156.249 111.885 C 158.246 120.074,168.173 120.560,170.801 112.597 C 171.787 109.610,169.347 105.511,165.465 103.631 C 163.575 102.716,163.548 102.714,161.735 103.238 M166.568 105.735 C 167.430 106.230,168.330 106.987,168.568 107.418 C 168.805 107.848,169.118 108.290,169.263 108.401 C 169.781 108.796,170.080 111.504,169.636 111.778 C 169.396 111.926,169.200 112.326,169.200 112.666 C 169.200 113.814,166.806 116.400,165.743 116.400 C 165.198 116.400,164.849 116.555,164.966 116.744 C 165.083 116.934,164.463 116.958,163.589 116.798 C 162.715 116.638,162.000 116.575,162.000 116.657 C 162.000 116.811,160.028 115.147,158.715 113.885 C 158.305 113.492,158.078 112.997,158.209 112.785 C 158.340 112.573,158.255 112.400,158.020 112.400 C 157.765 112.400,157.634 111.676,157.696 110.602 C 157.753 109.613,157.946 108.803,158.124 108.802 C 158.302 108.801,158.349 108.641,158.229 108.447 C 156.830 106.184,163.546 104.000,166.568 105.735 M357.501 113.549 C 355.281 114.680,349.932 118.623,345.847 122.138 C 343.841 123.864,340.130 127.035,337.600 129.186 C 321.307 143.033,273.156 191.013,271.149 195.400 C 269.810 198.329,270.621 200.855,273.313 202.132 C 276.399 203.596,278.513 202.754,282.223 198.584 C 283.751 196.867,288.425 191.939,292.610 187.631 C 296.796 183.324,301.481 178.360,303.023 176.600 C 306.401 172.742,324.443 154.304,329.200 149.848 C 335.743 143.718,354.864 124.169,357.612 120.800 C 362.691 114.572,362.635 110.931,357.501 113.549 M82.889 135.823 C 81.727 136.637,81.679 138.879,82.800 140.000 C 84.606 141.806,87.600 140.448,87.600 137.823 C 87.600 136.254,86.475 135.200,84.800 135.200 C 84.238 135.200,83.378 135.480,82.889 135.823 M312.183 159.889 C 310.547 162.080,306.874 165.600,306.224 165.600 C 305.918 165.600,305.576 165.825,305.465 166.100 C 305.313 166.477,305.255 166.468,305.232 166.064 C 305.207 165.647,310.389 160.276,312.600 158.428 C 313.469 157.702,313.253 158.456,312.183 159.889 M303.300 168.265 C 303.025 168.376,302.800 168.667,302.800 168.912 C 302.800 170.356,298.533 175.452,289.814 184.419 C 285.846 188.499,281.340 193.225,279.800 194.922 C 276.735 198.298,276.131 198.677,275.060 197.893 C 273.858 197.015,274.641 195.477,277.894 192.326 C 279.555 190.717,281.921 188.320,283.151 187.000 C 288.383 181.386,296.163 173.634,298.223 171.982 C 299.445 171.002,301.020 169.710,301.723 169.112 C 302.425 168.513,303.180 168.032,303.400 168.043 C 303.620 168.054,303.575 168.154,303.300 168.265 M325.043 184.038 C 321.613 186.736,321.489 188.520,321.440 236.028 C 321.402 272.314,321.442 274.699,322.100 275.357 C 322.767 276.024,322.801 275.851,322.825 271.729 C 322.849 267.400,323.872 260.281,323.963 263.800 L 324.005 265.400 324.600 264.259 C 324.927 263.631,325.356 262.281,325.553 261.259 C 325.856 259.685,325.917 259.596,325.955 260.676 C 325.980 261.378,326.191 262.071,326.426 262.216 C 326.712 262.393,326.776 261.976,326.621 260.939 C 326.494 260.084,326.529 259.711,326.701 260.099 C 326.871 260.484,326.991 257.604,326.969 253.699 L 326.928 246.600 327.180 252.600 L 327.432 258.600 327.544 249.600 C 327.612 244.155,327.791 240.916,327.998 241.400 C 328.497 242.566,328.123 185.575,327.623 184.261 C 327.137 182.982,326.460 182.923,325.043 184.038 M85.542 205.733 C 84.572 207.069,82.422 207.625,80.822 206.952 C 79.264 206.297,79.273 207.099,80.832 207.894 C 83.104 209.054,86.400 207.707,86.400 205.619 C 86.400 204.605,86.356 204.610,85.542 205.733 M261.051 205.804 C 259.364 206.684,257.666 208.266,252.108 214.133 C 242.582 224.189,242.541 224.833,250.942 232.505 C 257.881 238.841,257.372 238.937,267.375 229.376 C 277.487 219.709,277.651 219.217,273.027 212.382 C 268.751 206.061,264.761 203.869,261.051 205.804 M266.648 209.283 C 269.577 211.276,273.494 217.508,273.044 219.458 C 272.775 220.626,260.892 232.588,258.988 233.606 C 257.419 234.446,255.998 233.698,252.270 230.072 C 246.667 224.623,246.608 223.997,251.190 218.629 C 259.619 208.752,262.928 206.751,266.648 209.283 M85.561 210.513 C 84.659 211.201,83.594 213.391,83.632 214.480 C 83.652 215.071,83.741 215.185,83.881 214.800 C 84.207 213.906,86.079 212.000,86.632 212.000 C 86.897 212.000,87.218 211.730,87.345 211.400 C 87.657 210.586,89.945 210.626,90.869 211.462 C 91.288 211.842,91.600 211.931,91.600 211.672 C 91.600 210.364,86.931 209.468,85.561 210.513 M91.986 213.876 C 91.964 214.974,91.094 216.184,90.215 216.337 C 89.783 216.413,89.068 216.728,88.626 217.037 C 87.577 217.772,86.393 217.751,85.289 216.977 C 84.167 216.192,84.136 216.523,85.235 217.546 C 87.833 219.968,92.800 217.812,92.800 214.263 C 92.800 213.383,92.003 213.005,91.986 213.876 M149.180 215.701 C 147.002 217.621,146.389 218.643,148.113 217.479 C 148.945 216.918,149.821 216.393,150.059 216.314 C 150.297 216.234,150.426 215.862,150.346 215.486 C 150.216 214.878,150.087 214.902,149.180 215.701 M298.622 233.164 C 298.236 233.788,298.869 234.845,299.550 234.716 C 300.558 234.524,300.649 232.800,299.651 232.800 C 299.209 232.800,298.746 232.964,298.622 233.164 M322.690 254.093 C 322.601 254.812,322.526 254.320,322.524 253.000 C 322.522 251.680,322.595 251.092,322.686 251.693 C 322.777 252.294,322.779 253.374,322.690 254.093 M325.893 256.089 C 325.809 257.030,325.739 256.360,325.737 254.600 C 325.736 252.840,325.805 252.070,325.891 252.889 C 325.977 253.709,325.978 255.149,325.893 256.089 M171.900 252.557 C 171.044 253.207,170.991 254.529,171.795 255.196 C 172.697 255.944,174.344 255.361,174.639 254.189 C 175.094 252.376,173.438 251.389,171.900 252.557 M322.295 270.100 C 322.214 271.255,322.148 270.310,322.148 268.000 C 322.148 265.690,322.214 264.745,322.295 265.900 C 322.376 267.055,322.376 268.945,322.295 270.100 M320.944 275.600 C 320.944 277.690,321.012 278.545,321.094 277.500 C 321.176 276.455,321.176 274.745,321.094 273.700 C 321.012 272.655,320.944 273.510,320.944 275.600 " stroke="none" fill="#3d5d81" fill-rule="evenodd"></path></g></svg>